<ttFont>
          <CharString index="0">
            hvcurveto
            72 340 rlineto
            -144 hlineto
            -68 -321 rlineto
            -51 -15 -26 -37 -39 hhcurveto
            -23 -7 18 23 9 1 9 2 10 72 callsubr
            56 13 82 50 vhcurveto
            128 callsubr
            return
          </CharString>
          <CharString index="1">
            -81 callsubr
            -36 60 return
          </CharString>
          <CharString index="2">
            77 45 61 46 27 -13 21 -31 -37 -19 -24 -19 -11 6 -9 13 -1 hvcurveto
            -104 callsubr
            return
          </CharString>
          <CharString index="3">
            -16 -3 -20 -4 -24 hhcurveto
            -27 -32 5 1 -17 hvcurveto
            -105 callgsubr
            return
          </CharString>
          <CharString index="4">
            hmoveto
            157 736 rlineto
            11 -24 -32 3 -23 hhcurveto
            -117 -130 -135 -160 -101 hvcurveto
            2 -21 -18 1 -13 hhcurveto
            -117 -87 -55 -68 -39 27 -19 35 31 25 15 24 15 -8 16 -5 hvcurveto
            13 35 41 13 63 4 rrcurveto
            -88 -153 -59 -165 -89 vvcurveto
            -104 81 -2 53 vhcurveto
            -7 9 -7 15 32 vvcurveto
            104 55 190 75 163 vhcurveto
            44 -4 39 -9 51 -23 return
          </CharString>
          <CharString index="5">
            hhcurveto
            -23 -7 21 -29 callgsubr
            8 2 8 -106 callsubr
            return
          </CharString>
          <CharString index="6">
            170 callgsubr
            -64 -30 -47 hhcurveto
            -5 -3 234 callgsubr
            1 vlineto
            142 callsubr
            73 12 65 30 39 41 rrcurveto
            -260 -86 rmoveto
            -99 callgsubr
            5 callgsubr
            return
          </CharString>
          <CharString index="7">
            rmoveto
            -11 5 11 -2 11 hhcurveto
            27 17 25 24 17 -10 11 -13 7 hvcurveto
            33 64 28 60 20 65 rrcurveto
            11 -154 8 -31 -52 vvcurveto
            -70 -43 -23 -44 -44 -17 23 47 vhcurveto
            return
          </CharString>
          <CharString index="8">
            -51 -15 -36 -37 -39 hhcurveto
            -28 -13 9 28 10 1 -63 callsubr
            -106 callsubr
            return
          </CharString>
          <CharString index="9">
            14 39 hvcurveto
            94 211 7 164 vvcurveto
            80 -64 33 -71 -118 -60 -81 -114 -40 vhcurveto
            48 hlineto
            73 31 34 31 43 hhcurveto
            31 15 -18 -29 hvcurveto
            -112 -212 -3 -149 vvcurveto
            -79 return
          </CharString>
          <CharString index="10">
            -6 81 629 46 hstemhm
            16 91 1 148 267 133 hintmask 00000000
            hintmask 11011000
            431 656 rmoveto
            7 -19 -16 1 -17 hhcurveto
            -180 -91 -307 -162 -146 74 -55 105 262 107 307 193 149 -62 107 -175 hvcurveto
            hintmask 11101000
            -211 -192 -133 -140 -61 37 -23 64 hvcurveto
            8 -10 7 39 vvcurveto
            159 135 98 153 105 23 -59 -116 -202 -108 -252 -101 vhcurveto
            hintmask 11011000
            -41 -17 48 68 154 84 256 91 55 hvcurveto
            return
          </CharString>
          <CharString index="11">
            -91 -35 -63 -26 -56 hhcurveto
            -17 -13 1 3 -10 hvcurveto
            23 15 1 25 8 vvcurveto
            35 -23 19 -39 -41 -26 -30 -43 -53 47 -33 83 94 72 38 132 45 vhcurveto
            return
          </CharString>
          <CharString index="12">
            41 callsubr
            90 callgsubr
            return
          </CharString>
          <CharString index="13">
            -51 callgsubr
            111 75 88 151 3 vhcurveto
            62 16 81 38 40 136 rrcurveto
            return
          </CharString>
          <CharString index="14">
            -71 -19 -22 -44 -39 -19 28 47 vhcurveto
            -11 5 11 -2 11 hhcurveto
            27 21 21 24 28 -17 14 -35 -35 -37 -36 -59 -61 20 -72 119 return
          </CharString>
          <CharString index="15">
            -144 hlineto
            -11 -53 rlineto
            7 vlineto
            29 -24 22 -57 -174 -83 -214 -136 return
          </CharString>
          <CharString index="16">
            -6 79 hstem
            -32 53 vstem
            382 -56 callgsubr
            -19 -17 -24 -16 -29 -17 rrcurveto
            3 11 1 12 -17 callgsubr
            47 27 54 38 52 60 rrcurveto
            -403 -36 -100 callsubr
            return
          </CharString>
          <CharString index="17">
            550 rmoveto
            -14 12 15 -7 19 hhcurveto
            51 31 42 59 109 -114 11 -47 hvcurveto
            hintmask 10111100
            -129 -102 -75 -104 hvcurveto
            -147 205 -61 -171 vvcurveto
            -84 -48 -49 -68 vhcurveto
            hintmask 11110100
            -64 -32 46 50 69 63 25 54 hvcurveto
            52 -3 -50 14 -35 hhcurveto
            -70 -77 -56 -108 -123 97 -49 115 145 136 82 168 hvcurveto
            hintmask 10111100
            216 -225 20 147 vvcurveto
            60 36 31 56 vhcurveto
            hintmask 10110010
            56 18 -32 -35 -33 -18 -37 -27 -16 hvcurveto
            return
          </CharString>
          <CharString index="18">
            117 callgsubr
            156 76 vstem
            384 -56 callgsubr
            150 callgsubr
            -48 -24 16 68 131 callgsubr
            hvcurveto
            -8 12 12 -4 11 hhcurveto
            29 24 24 49 45 -23 47 -7 callgsubr
            90 callsubr
            132 87 92 93 56 hvcurveto
            return
          </CharString>
          <CharString index="19">
            45 16 -29 -32 -39 -22 -41 -24 -12 hvcurveto
            -23 19 22 -3 16 hhcurveto
            51 19 39 53 96 -74 38 -93 -262 -87 -339 -181 return
          </CharString>
          <CharString index="20">
            -144 hlineto
            -35 -167 rlineto
            -51 -11 -30 -37 -67 callsubr
            18 -72 callgsubr
            2 10 hvcurveto
            39 186 rlineto
            -144 hlineto
            return
          </CharString>
          <CharString index="21">
            12 25 hvcurveto
            35 12 32 31 vvcurveto
            60 -23 33 -72 -12 -15 -1 -3 -15 vhcurveto
            42 42 31 45 45 27 rrcurveto
            -23 -1 16 -28 40 hhcurveto
            40 23 25 40 37 -22 29 -47 -78 -30 -65 -142 -142 hvcurveto
            43 198 rlineto
            -144 hlineto
            return
          </CharString>
          <CharString index="22">
            -33 callsubr
            40 46 26 52 19 hvcurveto
            endchar
          </CharString>
          <CharString index="23">
            -18 -32 2 76 94 55 180 85 32 9 return
          </CharString>
          <CharString index="24">
            -51 callsubr
            66 85 27 143 29 vhcurveto
            return
          </CharString>
          <CharString index="25">
            500 rmoveto
            -26 callsubr
            71 48 47 46 30 vhcurveto
            -59 8 35 -34 55 hhcurveto
            53 20 32 69 27 hvcurveto
            -3 -6 -7 -1 -9 hhcurveto
            -28 -13 9 28 10 1 -63 callsubr
            hvcurveto
            return
          </CharString>
          <CharString index="26">
            hvcurveto
            72 340 rlineto
            -144 hlineto
            -68 -321 rlineto
            -25 callgsubr
            -18 vvcurveto
            -84 47 return
          </CharString>
          <CharString index="27">
            111 callsubr
            99 62 182 71 return
          </CharString>
          <CharString index="28">
            vvcurveto
            67 -11 37 -11 260 vhcurveto
            -148 -20 -31 -99 -36 -97 -56 -100 rlinecurve
            -27 -13 -26 -33 -47 vvcurveto
            return
          </CharString>
          <CharString index="29">
            -52 -21 -20 -36 -43 127 callgsubr
            126 callsubr
            -57 30 -56 88 53 77 21 164 56 vhcurveto
            return
          </CharString>
          <CharString index="30">
            rmoveto
            -72 -3 -20 -64 -43 hhcurveto
            -21 -18 15 25 32 28 37 77 27 hvcurveto
            endchar
          </CharString>
          <CharString index="31">
            vvcurveto
            80 -47 33 -64 -31 -44 -8 -48 -43 vhcurveto
            26 121 rlineto
            125 hlineto
            12 54 rlineto
            -125 hlineto
            31 146 -148 -20 -27 -126 rlineto
            -55 hlineto
            -11 -54 rlineto
            54 hlineto
            -106 -500 rlineto
            144 hlineto
            53 252 rlineto
            51 return
          </CharString>
          <CharString index="32">
            17 25 hvcurveto
            56 48 121 81 vvcurveto
            80 -47 33 -64 return
          </CharString>
          <CharString index="33">
            rmoveto
            -85 callsubr
          </CharString>
          <CharString index="34">
            49 callgsubr
            hvcurveto
            -64 -45 -123 -68 vvcurveto
            return
          </CharString>
          <CharString index="35">
            40 8 115 82 131 vvcurveto
            return
          </CharString>
          <CharString index="36">
            296 70 callgsubr
            106 callsubr
            155 77 321 59 hintmask 00000000
            hintmask 10010110
            762 -56 callgsubr
            hintmask 01100110
            -90 callgsubr
            49 rlineto
            75 callgsubr
            -94 callgsubr
            hintmask 10011110
            -75 -67 -96 213 callsubr
            -44 24 75 8 0 10 1 9 hvcurveto
            121 8 110 87 116 vvcurveto
            67 callgsubr
            hintmask 01010110
            -101 24 29 -38 67 hhcurveto
            50 97 -57 callsubr
            -660 71 rmoveto
            93 19 52 113 50 hhcurveto
            19 6 -16 -25 -83 -69 -79 -77 -3 hvcurveto
            endchar
          </CharString>
          <CharString index="37">
            -117 -16 -48 -90 55 callgsubr
            25 10 -15 179 callgsubr
            -9 -9 -17 -26 vvcurveto
            return
          </CharString>
          <CharString index="38">
            -51 -15 -36 -37 -39 hhcurveto
            -45 -6 51 37 -8 hvcurveto
            return
          </CharString>
          <CharString index="39">
            281 70 callgsubr
            106 callsubr
            155 77 321 59 hintmask 00000000
            hintmask 10010110
            604 228 rmoveto
            75 callgsubr
            hintmask 10101110
            -94 callgsubr
            -75 -67 -96 213 callsubr
            -44 24 75 8 0 10 1 9 hvcurveto
            121 8 110 87 116 vvcurveto
            hintmask 10011110
            67 callgsubr
            hintmask 01010110
            -100 23 30 -39 64 30 callsubr
            -44 -8 28 60 -11 hvcurveto
            -469 71 rmoveto
            93 19 52 113 50 hhcurveto
            19 6 -16 -25 -83 -69 -79 -77 -3 hvcurveto
            endchar
          </CharString>
          <CharString index="40">
            -39 hhcurveto
            -23 -7 return
          </CharString>
          <CharString index="41">
            289 -6 82 -82 97 362 190 callgsubr
            hintmask 10011110
            755 -56 callgsubr
            hintmask 01101110
            -90 callgsubr
            49 rlineto
            75 callgsubr
            -94 callgsubr
            hintmask 10011110
            -75 -67 -95 213 callsubr
            -45 24 75 91 65 190 64 96 callsubr
            107 124 53 85 85 hvcurveto
            hintmask 01011110
            -97 21 31 -41 68 hhcurveto
            50 97 -57 callsubr
            endchar
          </CharString>
          <CharString index="42">
            hintmask 0011010111010111
            -3 callgsubr
            204 callgsubr
            -109 -64 -103 -106 -32 hvcurveto
            -27 callgsubr
            18 1 17 15 vvcurveto
            hintmask 0011011011010111
            97 -59 62 -77 -64 -79 -29 -127 -106 vhcurveto
            hintmask 0011010111010111
            -9 9 -10 7 -11 5 101 callgsubr
            -104 51 -76 115 vhcurveto
            hintmask 0011011011100111
            75 callsubr
            27 -5 21 -7 19 hvcurveto
            88 77 67 31 41 hhcurveto
            35 19 -28 -77 hvcurveto
            hintmask 1001010111011111
            -118 -55 -165 -53 -15 -8 16 25 17 3 19 7 23 vhcurveto
            8 -11 -13 4 -11 hhcurveto
            -28 -23 -24 -49 -45 22 -47 81 122 67 129 117 24 hvcurveto
            57 hlineto
            202 callsubr
            return
          </CharString>
          <CharString index="43">
            198 callsubr
            80 hlineto
            8 40 rlineto
            -80 hlineto
            17 82 rlineto
            57 11 31 56 64 hhcurveto
            32 22 -13 -27 1 hvcurveto
            1 -1 -4 0 -3 hhcurveto
            -21 -13 -26 -23 -43 31 -11 29 41 38 21 60 96 -99 19 -80 -86 -108 -31 -184 -40 hvcurveto
            return
          </CharString>
          <CharString index="44">
            11 3 11 return
          </CharString>
          <CharString index="45">
            366 rlineto
            8 16 18 3 15 hhcurveto
            73 22 -54 -69 -76 -26 -99 -73 -24 -22 9 27 -21 hvcurveto
            -69 -29 29 -63 91 hhcurveto
            152 62 169 99 107 -53 78 -116 -33 -31 return
          </CharString>
          <CharString index="46">
            -102 -22 -10 -93 -65 hhcurveto
            -31 -7 -12 callgsubr
            return
          </CharString>
          <CharString index="47">
            rlineto
            -34 callgsubr
            return
          </CharString>
          <CharString index="48">
            hintmask 00000000
            hintmask 01100000
            267 179 rmoveto
            hintmask 10100000
            -100 callgsubr
            return
          </CharString>
          <CharString index="49">
            -79 callsubr
            189 callsubr
            return
          </CharString>
          <CharString index="50">
            22 202 callgsubr
            return
          </CharString>
          <CharString index="51">
            rmoveto
            -6 3 -5 6 -3 vhcurveto
            76 49 45 67 52 vvcurveto
            39 -23 27 -41 -41 -32 -31 -39 -28 19 -20 25 -15 vhcurveto
            8 -5 4 -6 -6 vvcurveto
            return
          </CharString>
          <CharString index="52">
            -4 callgsubr
            -100 -42 -43 -90 -112 hhcurveto
            -48 -24 16 68 return
          </CharString>
          <CharString index="53">
            169 381 45 hstemhm
            12 93 259 138 -85 134 211 callgsubr
            244 hmoveto
            80 377 rlineto
            3 13 11 1 9 hhcurveto
            45 15 -28 -40 hvcurveto
            hintmask 11100000
            -76 -53 -120 29 callgsubr
            hintmask 11010000
            64 49 106 83 vvcurveto
            61 -27 46 -97 -12 -14 0 -1 -16 vhcurveto
            47 104 53 81 72 43 rrcurveto
            -27 11 19 -13 29 hhcurveto
            31 34 18 52 44 -34 23 -41 -47 -51 -27 -60 -49 hvcurveto
            -32 -37 -59 -90 -29 -87 64 299 rcurveline
            -95 callsubr
            return
          </CharString>
          <CharString index="54">
            41 81 callgsubr
            352 62 106 callsubr
            -70 55 218 callgsubr
            372 22 callgsubr
            -11 -52 rlineto
            219 callsubr
            vhcurveto
            hintmask 11110000
            36 callsubr
            hvcurveto
            -12 -53 rlineto
            hintmask 11101000
            -34 callgsubr
            -92 249 rmoveto
            220 callgsubr
            hintmask 11110000
            -84 callsubr
            -25 -12 hvcurveto
            -104 -489 rmoveto
            hintmask 11101000
            -85 callsubr
          </CharString>
          <CharString index="55">
            -109 -64 -103 -106 -32 hvcurveto
            -27 callgsubr
            17 1 16 17 vvcurveto
            97 -54 62 -92 -94 -45 -58 -91 -27 vhcurveto
            52 hlineto
            hintmask 1000101011110000
            20 callgsubr
            hintmask 1001011011110000
            22 callsubr
            hintmask 0011011011110000
            202 callsubr
            134 hlineto
            171 callgsubr
            57 hlineto
            -7 -31 -1 -29 -27 vvcurveto
            hintmask 0101011011110000
            -97 55 -62 91 119 76 115 95 40 vhcurveto
            -39 17 35 -17 43 hhcurveto
            -52 callgsubr
            hvcurveto
            return
          </CharString>
          <CharString index="56">
            vvcurveto
            -65 51 -32 61 return
          </CharString>
          <CharString index="57">
            rmoveto
            105 94 44 62 69 vvcurveto
            hintmask 10011110
            48 -22 40 -47 -29 -26 -15 -36 -25 11 -27 35 7 4 1 1 7 vhcurveto
            1 -3 0 -4 -5 vvcurveto
            -39 -38 -47 -64 -59 vhcurveto
            -45 202 -27 callsubr
            64 -287 rlineto
            -67 -78 -76 -68 -87 hhcurveto
            -41 -29 16 35 hvcurveto
            96 211 11 156 vvcurveto
            hintmask 10101110
            86 -64 31 -72 -116 -61 -81 -114 -40 vhcurveto
            48 hlineto
            73 31 33 31 43 hhcurveto
            32 15 -18 -29 hvcurveto
            -112 -212 -3 -148 vvcurveto
            -80 60 -34 88 129 102 76 90 96 vhcurveto
            hintmask 01100010
            -120 23 32 -46 60 hhcurveto
            50 58 32 71 5 hvcurveto
            -4 -11 -9 -2 -13 hhcurveto
            -41 -10 22 65 -11 hvcurveto
            endchar
          </CharString>
          <CharString index="58">
            23 10 -14 -41 -74 -35 -96 -35 -64 hvcurveto
            -40 -3 -30 -14 -43 vvcurveto
            return
          </CharString>
          <CharString index="59">
            51 15 27 41 36 -63 callgsubr
            return
          </CharString>
          <CharString index="60">
            44 -19 47 -37 -36 -32 -14 -35 -31 12 -25 35 5 5 1 1 7 vhcurveto
            -3 return
          </CharString>
          <CharString index="61">
            235 -6 97 322 91 -90 86 hstemhm
            -38 739 -166 141 169 callgsubr
            353 hmoveto
            128 callgsubr
            hintmask 11001000
            -48 callsubr
            -36 -55 -11 -74 -48 vhcurveto
            63 -11 -39 23 -53 hhcurveto
            -35 -44 -9 -48 -43 hvcurveto
            hintmask 10110000
            -84 callgsubr
            endchar
          </CharString>
          <CharString index="62">
            hhcurveto
            -27 -13 14 28 17 9 38 15 64 hvcurveto
            return
          </CharString>
          <CharString index="63">
            117 48 41 41 60 hhcurveto
            51 10 -47 -39 113 callsubr
            hvcurveto
            -12 callsubr
            return
          </CharString>
          <CharString index="64">
            -61 callsubr
            -37 -22 -29 -44 46 callsubr
            return
          </CharString>
          <CharString index="65">
            123 callsubr
            -90 -80 callsubr
            25 10 -14 179 callgsubr
            -7 -12 -18 -28 vvcurveto
            return
          </CharString>
          <CharString index="66">
            34 109 callgsubr
            hintmask 01010000
            366 254 rmoveto
            90 98 44 52 62 vvcurveto
            hintmask 00110000
            -47 callsubr
            -37 -28 -43 -53 -61 -12 73 rcurveline
            hintmask 11010000
            51 -8 -20 65 callsubr
            38 -51 47 callsubr
            endchar
          </CharString>
          <CharString index="67">
            582 rmoveto
            -57 callgsubr
            return
          </CharString>
          <CharString index="68">
            14 89 callgsubr
            352 62 106 callsubr
            -77 55 211 callsubr
            231 51 callsubr
            -10 -48 rlineto
            2 vlineto
            29 -24 22 -57 vhcurveto
            hintmask 11110000
            181 callgsubr
            hvcurveto
            25 116 rmoveto
            -51 -15 -38 88 callsubr
            31 7 -22 -13 3 hvcurveto
            -104 -491 rmoveto
            hintmask 10101000
            -60 -13 -25 -18 -21 85 callsubr
          </CharString>
          <CharString index="69">
            20 31 -69 callgsubr
            return
          </CharString>
          <CharString index="70">
            hlineto
            -35 -167 rlineto
            -52 -11 -30 -36 -67 callsubr
            18 -72 callgsubr
            2 10 hvcurveto
            39 186 rlineto
            -144 hlineto
            -34 -163 rlineto
            hintmask 10111100
            -142 -30 -106 -117 -79 hhcurveto
            -43 -25 16 68 23 3 27 5 28 hvcurveto
            121 hlineto
            13 60 rlineto
            -119 hlineto
            82 24 41 74 40 hhcurveto
            44 callsubr
            return
          </CharString>
          <CharString index="71">
            -36 -100 callsubr
            endchar
          </CharString>
          <CharString index="72">
            407 rmoveto
            -39 16 -43 11 -40 8 56 112 64 93 60 32 rrcurveto
            return
          </CharString>
          <CharString index="73">
            -65 -38 -75 -65 -44 -17 35 52 106 88 394 86 vhcurveto
            return
          </CharString>
          <CharString index="74">
            14 callgsubr
            18 15 return
          </CharString>
          <CharString index="75">
            -273 -40 callgsubr
            return
          </CharString>
          <CharString index="76">
            -25 callgsubr
            -18 vvcurveto
            hintmask 10100000
            -84 -26 callgsubr
            176 callsubr
            -3 -7 -6 -3 -19 hhcurveto
            -28 -13 9 28 10 1 -63 callsubr
            hvcurveto
            72 340 rlineto
            -144 hlineto
            return
          </CharString>
          <CharString index="77">
            vhcurveto
            -25 -16 -36 -15 -33 -11 rrcurveto
            52 63 34 93 121 vvcurveto
            return
          </CharString>
          <CharString index="78">
            hhcurveto
            -37 -18 18 37 21 4 23 9 24 hvcurveto
            12 -13 -13 2 -11 hhcurveto
            -31 -27 -28 -56 -65 44 -41 92 return
          </CharString>
          <CharString index="79">
            -90 callgsubr
            50 rlineto
            62 callgsubr
            -106 callgsubr
            -36 -35 -59 -60 -64 vhcurveto
            203 callgsubr
            -141 hlineto
            return
          </CharString>
          <CharString index="80">
            rlineto
            -141 hlineto
            return
          </CharString>
          <CharString index="81">
            -92 callsubr
            -16 callgsubr
            return
          </CharString>
          <CharString index="82">
            -91 -35 -68 -26 -51 hhcurveto
            -17 -13 1 3 -10 hvcurveto
            23 15 1 25 8 vvcurveto
            35 -23 19 -39 -41 -26 -30 -43 -53 47 -33 83 89 77 212 callgsubr
          </CharString>
          <CharString index="83">
            -205 -69 92 callsubr
            -80 callgsubr
            return
          </CharString>
          <CharString index="84">
            844 27 callsubr
            -35 -167 rlineto
            -140 -29 -108 -115 -77 hhcurveto
            -43 -25 16 68 12 1 13 1 15 149 callsubr
            79 callsubr
            118 102 109 106 56 29 callsubr
            -9 -49 -3 -22 -19 vvcurveto
            return
          </CharString>
          <CharString index="85">
            rmoveto
            -55 -13 -40 -26 -28 hhcurveto
            144 callgsubr
            -48 -226 rlineto
            477 455 rmoveto
            -103 callgsubr
            -294 192 callgsubr
            hintmask 1001100101000000
            133 callgsubr
            15 3 15 1 15 1 rlinecurve
            158 callsubr
          </CharString>
          <CharString index="86">
            -45 callsubr
            53 248 rlineto
            return
          </CharString>
          <CharString index="87">
            24 callsubr
            72 340 rlineto
            -87 callsubr
            return
          </CharString>
          <CharString index="88">
            74 callsubr
            hintmask 10001110
            -43 callsubr
            -205 -69 92 callsubr
            vhcurveto
            hintmask 00101110
            37 callgsubr
            hintmask 10010010
            42 callsubr
            return
          </CharString>
          <CharString index="89">
            -28 -38 callsubr
            return
          </CharString>
          <CharString index="90">
            -8 12 12 -4 11 hhcurveto
            29 24 24 49 45 -23 47 -7 callgsubr
            90 callsubr
            172 74 137 129 54 hvcurveto
            return
          </CharString>
          <CharString index="91">
            53 64 122 hstemhm
            -13 50 callsubr
            return
          </CharString>
          <CharString index="92">
            374 rmoveto
            96 52 130 85 73 -23 40 -59 -101 -61 -97 -117 -72 18 -42 78 hvcurveto
            3 37 rmoveto
            -23 -4 33 32 16 1 15 1 12 hvcurveto
            97 8 49 51 28 hhcurveto
            21 4 -28 -35 -101 -33 -92 -52 hvcurveto
            return
          </CharString>
          <CharString index="93">
            -4 callsubr
            72 63 18 83 -45 callgsubr
            return
          </CharString>
          <CharString index="94">
            rlineto
            -59 callgsubr
            53 101 76 callsubr
            return
          </CharString>
          <CharString index="95">
            -29 hlineto
            -13 -60 rlineto
            return
          </CharString>
          <CharString index="96">
            rmoveto
            116 42 130 85 73 -33 40 -59 -101 -61 -97 -117 -72 18 -42 78 hvcurveto
            -2 37 rmoveto
            -23 -4 33 32 16 1 15 1 12 hvcurveto
            97 8 42 49 29 hhcurveto
            21 7 -33 -35 -100 -30 -86 -52 hvcurveto
            return
          </CharString>
          <CharString index="97">
            -250 78 166 return
          </CharString>
          <CharString index="98">
            -186 -384 -21 384 rlineto
            -140 hlineto
            -53 -248 rlineto
            return
          </CharString>
          <CharString index="99">
            -43 17 36 -18 44 hhcurveto
            -52 callgsubr
            hvcurveto
            return
          </CharString>
          <CharString index="100">
            -91 -6 84 340 91 hstemhm
            -21 152 -152 430 -218 151 211 callgsubr
            375 -56 callgsubr
            177 callgsubr
            hintmask 11101000
            -43 -28 -98 callsubr
            60 -34 95 127 84 83 102 64 vhcurveto
            return
          </CharString>
          <CharString index="101">
            hintmask 0000000000000000
            return
          </CharString>
          <CharString index="102">
            -56 callgsubr
            -59 callgsubr
            176 callsubr
            -3 -7 -6 -3 -19 hhcurveto
            -28 -13 9 28 10 1 -63 callsubr
            hvcurveto
            72 340 rlineto
            168 callsubr
            return
          </CharString>
          <CharString index="103">
            -83 callsubr
            15 return
          </CharString>
          <CharString index="104">
            -56 callgsubr
            -51 -15 -27 return
          </CharString>
          <CharString index="105">
            rmoveto
            -19 callgsubr
            99 62 182 71 31 return
          </CharString>
          <CharString index="106">
            -61 callsubr
            -39 -23 -33 -47 -56 32 -57 78 111 19 89 159 34 vhcurveto
            137 30 26 55 70 hhcurveto
            return
          </CharString>
          <CharString index="107">
            27 28 -15 -41 -35 -20 -44 -24 -8 hvcurveto
            87 callgsubr
            172 82 125 153 62 vhcurveto
            -44 callsubr
            31 hlineto
            46 24 -35 -71 2 hvcurveto
            return
          </CharString>
          <CharString index="108">
            104 33 29 153 32 hvcurveto
            return
          </CharString>
          <CharString index="109">
            -84 callgsubr
            144 hlineto
            128 callgsubr
            return
          </CharString>
          <CharString index="110">
            -80 callgsubr
            vhcurveto
            return
          </CharString>
          <CharString index="111">
            21 -3 19 16 33 vvcurveto
            return
          </CharString>
          <CharString index="112">
            107 285 37 382 46 hstem
            6 93 383 111 vstem
            238 hmoveto
            61 285 rlineto
            5 hlineto
            180 109 141 127 103 -72 94 -164 -167 -184 -127 -133 -72 38 -25 69 hvcurveto
            8 -14 9 51 vvcurveto
            153 96 90 163 88 36 -62 -74 -107 -74 -131 -101 -8 vhcurveto
            71 334 -148 -20 -136 -636 rlineto
            endchar
          </CharString>
          <CharString index="113">
            241 callsubr
            69 93 vstem
            699 hmoveto
            105 736 rlineto
            -144 hlineto
            -220 -527 23 527 rlineto
            9 -25 -25 5 -26 hhcurveto
            -152 -166 -138 -128 -67 42 -24 65 hvcurveto
            9 -14 7 53 vvcurveto
            115 59 77 100 33 vhcurveto
            -254 -687 rlineto
            80 hlineto
            167 451 -20 -451 rlineto
            137 hlineto
            188 449 -64 -449 rlineto
            endchar
          </CharString>
          <CharString index="114">
            hlineto
            -68 -321 rlineto
            -51 -15 -26 -37 -39 -102 callsubr
            35 return
          </CharString>
          <CharString index="115">
            72 340 rlineto
            -26 callsubr
            72 return
          </CharString>
          <CharString index="116">
            122 226 122 131 76 -6 callsubr
            return
          </CharString>
          <CharString index="117">
            15 620 106 -64 87 hstemhm
            6 93 105 callgsubr
            301 hmoveto
            hintmask 10100000
            138 642 52 callgsubr
            hintmask 01100000
            -22 callgsubr
          </CharString>
          <CharString index="118">
            17 callgsubr
            endchar
          </CharString>
          <CharString index="119">
            rmoveto
            hintmask 0011001111000000
            -42 callsubr
            hintmask 0101001011000000
            -25 9 -15 18 -5 vhcurveto
            return
          </CharString>
          <CharString index="120">
            63 67 vvcurveto
            -106 callgsubr
            -39 return
          </CharString>
          <CharString index="121">
            -115 67 -43 93 123 101 return
          </CharString>
          <CharString index="122">
            105 -1 -43 52 -84 hhcurveto
            -206 -65 92 callsubr
            return
          </CharString>
          <CharString index="123">
            -38 630 108 -70 82 hstemhm
            12 93 105 callgsubr
            235 hmoveto
            hintmask 10100000
            140 650 rlineto
            -11 51 51 -9 51 hhcurveto
            83 1 78 42 16 hvcurveto
            -9 -29 -33 -3 -33 hhcurveto
            hintmask 01100000
            -67 -64 12 -43 hhcurveto
            -260 -87 -127 -133 -72 38 -25 69 hvcurveto
            8 -14 9 51 vvcurveto
            160 50 44 80 155 callsubr
            return
          </CharString>
          <CharString index="124">
            rmoveto
            43 -23 34 -49 -60 -25 -55 -36 -39 27 -31 43 63 24 40 44 vhcurveto
            -37 -3 rmoveto
            -28 -15 -18 -31 -24 -10 14 23 25 12 31 35 32 1 -27 -20 vhcurveto
            endchar
          </CharString>
          <CharString index="125">
            rmoveto
            hintmask 1110110010110000
            102 callsubr
            hintmask 1111010010110000
            233 callsubr
            vhcurveto
            hintmask 1110110101110000
            78 callgsubr
            hintmask 1110110010110000
            347 return
          </CharString>
          <CharString index="126">
            63 hhcurveto
            111 19 89 159 34 hvcurveto
            137 30 26 55 70 hhcurveto
            return
          </CharString>
          <CharString index="127">
            -61 -27 -17 -27 -40 -21 callsubr
            return
          </CharString>
          <CharString index="128">
            15 43 26 47 21 35 rrcurveto
            -80 -185 rmoveto
            11 16 20 6 23 hhcurveto
            23 26 -8 -47 -60 -42 -90 -59 -27 -13 17 34 34 6 33 27 70 hvcurveto
            endchar
          </CharString>
          <CharString index="129">
            11 -11 -14 3 -11 hhcurveto
            -32 -27 -28 -56 -53 29 -53 90 127 67 129 117 24 hvcurveto
            56 hlineto
            return
          </CharString>
          <CharString index="130">
            -3 rmoveto
            83 21 61 45 32 116 rrcurveto
            -42 hlineto
            -20 -80 -45 -38 -60 -20 98 459 rcurveline
            -144 hlineto
            return
          </CharString>
          <CharString index="131">
            -3 callsubr
            -37 -39 hhcurveto
            -28 -13 9 28 10 1 -63 callsubr
            hvcurveto
            return
          </CharString>
          <CharString index="132">
            37 -5 -22 22 -35 hhcurveto
            -44 -25 -27 -44 -41 29 -32 59 97 47 99 60 26 hvcurveto
            250 591 rlineto
            -66 hlineto
            -158 -372 -87 375 rlineto
            -104 callgsubr
            111 56 76 93 35 vhcurveto
            return
          </CharString>
          <CharString index="133">
            170 callsubr
            hvcurveto
            -3 -7 -6 -3 -19 hhcurveto
            return
          </CharString>
          <CharString index="134">
            500 rmoveto
            168 callsubr
            -51 -11 -30 -37 -67 callsubr
            18 -72 callgsubr
            2 10 hvcurveto
            39 186 rlineto
            -144 hlineto
            return
          </CharString>
          <CharString index="135">
            -51 -11 -29 -35 -67 callsubr
            18 -72 callgsubr
            2 10 hvcurveto
            39 186 rlineto
            -144 hlineto
            return
          </CharString>
          <CharString index="136">
            vhcurveto
            -8 callsubr
            return
          </CharString>
          <CharString index="137">
            hhcurveto
            26 callsubr
            return
          </CharString>
          <CharString index="138">
            49 callsubr
            54 48 return
          </CharString>
          <CharString index="139">
            rmoveto
            131 111 113 143 144 -111 111 -131 -133 -109 -113 -143 -141 109 -114 133 hvcurveto
            2 42 rmoveto
            -109 -89 93 120 120 89 93 109 108 89 -93 -120 -120 -89 -93 -108 hvcurveto
            return
          </CharString>
          <CharString index="140">
            -24 -69 -64 -14 -21 21 -14 12 -21 44 32 125 11 41 16 37 23 34 rrcurveto
            33 23 24 17 24 hhcurveto
            25 15 -11 -23 4 hvcurveto
            return
          </CharString>
          <CharString index="141">
            -29 104 -81 97 -95 90 362 61 -57 48 -47 103 hstemhm
            -15 48 callsubr
            hintmask 0011001011000000
            return
          </CharString>
          <CharString index="142">
            500 rmoveto
            -180 hlineto
            -72 -44 -50 -51 -29 23 -15 23 27 27 16 37 hvcurveto
            23 -11 -7 6 vvcurveto
            15 24 1 31 vhcurveto
            49 hlineto
            return
          </CharString>
          <CharString index="143">
            64 callgsubr
            24 31 29 return
          </CharString>
          <CharString index="144">
            -84 -26 callgsubr
            151 callgsubr
            vhcurveto
            return
          </CharString>
          <CharString index="145">
            151 callgsubr
            hvcurveto
            return
          </CharString>
          <CharString index="146">
            58 -49 21 33 vvcurveto
            9 5 13 8 8 vhcurveto
            -51 hlineto
            -35 -35 -18 -38 -39 -59 48 -9 -39 vvcurveto
            -9 -5 -14 -8 -8 vhcurveto
            endchar
          </CharString>
          <CharString index="147">
            -20 callsubr
            -34 -163 rlineto
            return
          </CharString>
          <CharString index="148">
            -104 callgsubr
            107 52 75 88 37 vhcurveto
            return
          </CharString>
          <CharString index="149">
            -43 11 31 -35 19 callsubr
            return
          </CharString>
          <CharString index="150">
            72 340 rlineto
            -144 hlineto
            -68 -321 74 callgsubr
            return
          </CharString>
          <CharString index="151">
            19 9 -16 -25 -17 -4 -20 -8 -22 hvcurveto
            -8 12 12 -4 11 hhcurveto
            29 24 24 49 45 -23 47 -7 callgsubr
            90 callsubr
            118 102 109 106 56 hvcurveto
            -8 callsubr
            return
          </CharString>
          <CharString index="152">
            166 rmoveto
            34 149 rlineto
            35 hlineto
            12 39 rlineto
            -38 hlineto
            50 217 -86 -11 -47 -206 rlineto
            -90 hlineto
            29 50 56 47 69 vvcurveto
            35 -30 16 -35 vhcurveto
            3 -10 1 -11 -12 vvcurveto
            -80 -65 -83 -19 -60 vhcurveto
            141 hlineto
            -34 -149 rlineto
            return
          </CharString>
          <CharString index="153">
            -3 -30 callsubr
            199 callsubr
            return
          </CharString>
          <CharString index="154">
            60 hhcurveto
            55 58 31 72 5 hvcurveto
            -4 -11 -7 -2 -19 hhcurveto
            -35 -12 22 65 -11 hvcurveto
            return
          </CharString>
          <CharString index="155">
            137 callsubr
            13 68 308 59 -6 callsubr
            return
          </CharString>
          <CharString index="156">
            hhcurveto
            -23 -17 18 15 return
          </CharString>
          <CharString index="157">
            148 -16 122 49 77 -68 122 return
          </CharString>
          <CharString index="158">
            53 callsubr
            175 callsubr
            return
          </CharString>
          <CharString index="159">
            -43 13 33 -35 59 hhcurveto
            104 21 89 159 32 hvcurveto
            197 callsubr
            return
          </CharString>
          <CharString index="160">
            8 rmoveto
            -96 -29 -77 -27 -94 70 callsubr
            65 88 27 143 29 vhcurveto
            return
          </CharString>
          <CharString index="161">
            hhcurveto
            -65 -88 79 callgsubr
            return
          </CharString>
          <CharString index="162">
            200 rlineto
            -144 hlineto
            return
          </CharString>
          <CharString index="163">
            -6 63 -61 90 -86 91 149 60 134 66 -52 135 callgsubr
            hintmask 00000000
            hintmask 01010111
            422 158 callgsubr
            return
          </CharString>
          <CharString index="164">
            314 -250 75 -75 89 -25 -21 201 97 369 40 176 73 -63 63 hstemhm
            -209 61 hintmask 00000000
            hintmask 00111011
            780 1 callgsubr
            return
          </CharString>
          <CharString index="165">
            876 -56 callgsubr
            -32 -96 -41 -33 -72 -21 -13 53 -38 36 -31 11 rrcurveto
            -72 callsubr
            return
          </CharString>
          <CharString index="166">
            -6 53 -53 92 -90 72 172 60 -25 81 -12 9 82 74 -53 53 164 10 callgsubr
            4 76 131 9 callsubr
            hintmask 0011010111010111
            return
          </CharString>
          <CharString index="167">
            88 callgsubr
            -104 -55 -77 -78 -70 vhcurveto
            return
          </CharString>
          <CharString index="168">
            -250 78 -78 89 -20 -21 68 -21 122 37 return
          </CharString>
          <CharString index="169">
            -135 -78 -105 -104 -35 return
          </CharString>
          <CharString index="170">
            -94 callsubr
            -330 -233 rmoveto
            -63 -8 -28 -55 -29 hhcurveto
            -23 -11 14 19 40 47 27 52 18 hvcurveto
            return
          </CharString>
          <CharString index="171">
            -84 -26 callgsubr
            176 callsubr
            -3 -7 -6 -3 -19 hhcurveto
            -28 -13 9 28 10 1 -63 callsubr
            hvcurveto
            -627 90 rmoveto
            116 callsubr
            233 callsubr
            hvcurveto
            return
          </CharString>
          <CharString index="172">
            -83 callgsubr
            -123 20 return
          </CharString>
          <CharString index="173">
            -93 callsubr
            55 57 17 51 35 hvcurveto
            43 27 49 35 47 55 rrcurveto
            return
          </CharString>
          <CharString index="174">
            135 callsubr
            vhcurveto
            35 162 74 callsubr
            return
          </CharString>
          <CharString index="175">
            rmoveto
            -57 -12 -26 -21 -20 hhcurveto
            -11 -30 6 34 43 47 33 64 20 hvcurveto
            return
          </CharString>
          <CharString index="176">
            8 19 8 20 5 25 9 44 rcurveline
            return
          </CharString>
          <CharString index="177">
            vvcurveto
            -65 58 -43 60 return
          </CharString>
          <CharString index="178">
            55 25 24 39 36 vvcurveto
            43 -34 36 -68 -87 -38 53 callgsubr
            13 16 39 24 13 -18 -24 -38 -32 -53 -67 -16 vhcurveto
            return
          </CharString>
          <CharString index="179">
            -106 callsubr
            42 return
          </CharString>
          <CharString index="180">
            332 82 -53 105 hstemhm
            440 60 hintmask 00000000
            return
          </CharString>
          <CharString index="181">
            rlineto
            -147 hlineto
            -90 -59 -40 -208 -43 hvcurveto
            return
          </CharString>
          <CharString index="182">
            150 88 122 131 return
          </CharString>
          <CharString index="183">
            22 163 56 vhcurveto
            return
          </CharString>
          <CharString index="184">
            79 24 43 77 40 hhcurveto
            96 callsubr
            return
          </CharString>
          <CharString index="185">
            44 8 22 50 56 hhcurveto
            13 10 -3 -7 9 hvcurveto
            -13 -23 -12 -28 -7 -36 rrcurveto
            -365 -662 rmoveto
            -60 -12 -27 194 callgsubr
            28 63 21 hvcurveto
            endchar
          </CharString>
          <CharString index="186">
            50 -21 46 -89 -205 -65 -241 -115 90 callsubr
            return
          </CharString>
          <CharString index="187">
            71 20 64 291 54 return
          </CharString>
          <CharString index="188">
            106 64 88 108 34 return
          </CharString>
          <CharString index="189">
            141 callgsubr
            709 180 103 callgsubr
            hvcurveto
            return
          </CharString>
          <CharString index="190">
            -57 callgsubr
            -152 95 callsubr
            return
          </CharString>
          <CharString index="191">
            80 380 rlineto
            23 25 17 15 31 29 -27 -66 56 hhcurveto
            48 24 38 35 39 -24 36 -45 187 callsubr
            endchar
          </CharString>
          <CharString index="192">
            31 callsubr
            29 63 21 hvcurveto
            endchar
          </CharString>
          <CharString index="193">
            -75 -24 -88 -41 -84 -14 callsubr
            return
          </CharString>
          <CharString index="194">
            -51 -37 -18 -25 -29 hvcurveto
            16 75 rlineto
            -144 hlineto
            return
          </CharString>
          <CharString index="195">
            -24 102 callgsubr
            return
          </CharString>
          <CharString index="196">
            134 hstemhm
            -13 146 return
          </CharString>
          <CharString index="197">
            -113 61 -46 95 return
          </CharString>
          <CharString index="198">
            141 callsubr
            154 callgsubr
            return
          </CharString>
          <CharString index="199">
            -239 -116 return
          </CharString>
          <CharString index="200">
            -15 29 27 -13 51 hhcurveto
            59 61 38 72 31 -19 19 -43 -14 -18 -3 -5 -21 hvcurveto
            return
          </CharString>
          <CharString index="201">
            rmoveto
            92 404 rlineto
            -39 -71 -44 -3 -32 hhcurveto
            -7 -25 rlineto
            55 hlineto
            -77 -337 rlineto
            return
          </CharString>
          <CharString index="202">
            hlineto
            -75 -33 -23 -51 return
          </CharString>
          <CharString index="203">
            -42 callgsubr
            -204 -65 -243 -108 -121 81 -43 97 return
          </CharString>
          <CharString index="204">
            4 callsubr
            31 -21 21 -31 -39 -23 -33 -47 return
          </CharString>
          <CharString index="205">
            -19 -68 -13 -1 -12 -1 -13 hvcurveto
            -120 hlineto
            -13 -60 rlineto
            return
          </CharString>
          <CharString index="206">
            -32 171 193 hstem
            120 193 vstem
            313 267 rmoveto
            53 -44 44 -53 -53 -43 -44 -53 -53 43 -43 53 53 44 43 53 vhcurveto
            endchar
          </CharString>
          <CharString index="207">
            rmoveto
            11 54 -246 150 -9 -55 194 -120 -240 -96 -14 -57 rlineto
            return
          </CharString>
          <CharString index="208">
            81 callsubr
            206 callgsubr
            return
          </CharString>
          <CharString index="209">
            116 callsubr
            hvcurveto
            return
          </CharString>
          <CharString index="210">
            -55 37 -51 81 82 183 callgsubr
            vhcurveto
            return
          </CharString>
          <CharString index="211">
            222 137 callsubr
            return
          </CharString>
          <CharString index="212">
            120 callsubr
            -61 45 -67 101 return
          </CharString>
          <CharString index="213">
            hstemhm
            -13 148 return
          </CharString>
          <CharString index="214">
            20 31 -13 45 callgsubr
          </CharString>
          <CharString index="215">
            144 511 rmoveto
            -31 -99 -36 -97 -56 -100 rrcurveto
            -27 -13 -26 -33 -47 vvcurveto
            return
          </CharString>
          <CharString index="216">
            -97 23 29 -41 64 hhcurveto
            54 96 -57 callsubr
            return
          </CharString>
          <CharString index="217">
            hhcurveto
            215 callgsubr
            return
          </CharString>
          <CharString index="218">
            -49 hhcurveto
            -19 callgsubr
            return
          </CharString>
          <CharString index="219">
            -21 callsubr
            -134 hlineto
            -45 -200 rlineto
            -112 hlineto
            43 55 callsubr
            return
          </CharString>
          <CharString index="220">
            -95 -51 -77 -72 return
          </CharString>
          <CharString index="221">
            hmoveto
            -49 callgsubr
            return
          </CharString>
          <CharString index="222">
            37 callsubr
            endchar
          </CharString>
          <CharString index="223">
            99 19 51 107 50 hhcurveto
            19 6 -16 -25 return
          </CharString>
          <CharString index="224">
            100 151 81 -6 callsubr
            return
          </CharString>
          <CharString index="225">
            rmoveto
            -15 -15 -23 -8 -25 hhcurveto
            return
          </CharString>
          <CharString index="226">
            131 128 157 77 return
          </CharString>
          <CharString index="227">
            rlinecurve
            3 15 2 15 142 callgsubr
            return
          </CharString>
          <CharString index="228" raw="1">
            e70a990a 0b  
          </CharString>
          <CharString index="229">
            19 166 269 81 return
          </CharString>
          <CharString index="230">
            -117 -16 -51 return
          </CharString>
          <CharString index="231">
            5 callgsubr
            247 -348 rmoveto
            -63 -8 -28 -55 -29 hhcurveto
            -23 -11 14 19 40 47 27 52 18 hvcurveto
            endchar
          </CharString>
          <CharString index="232">
            140 123 93 146 88 -58 37 -59 -36 -37 -11 -20 -31 return
          </CharString>
          <CharString index="233">
            201 callsubr
            41 36 -73 callsubr
            return
          </CharString>
          <CharString index="234">
            -56 callgsubr
            -61 -56 -36 -40 -97 hhcurveto
            -36 -24 17 75 11 1 -68 callgsubr
            hvcurveto
            120 8 110 88 112 vvcurveto
            return
          </CharString>
          <CharString index="235">
            -63 7 35 -32 return
          </CharString>
          <CharString index="236">
            142 callsubr
            1 hlineto
            return
          </CharString>
          <CharString index="237">
            59 71 122 hstemhm
            131 128 -21 122 56 77 -75 return
          </CharString>
          <CharString index="238">
            hintmask 00000000
            hintmask 11100000
            163 callgsubr
            return
          </CharString>
          <CharString index="239">
            -60 37 -53 75 94 27 76 136 32 vhcurveto
            return
          </CharString>
          <CharString index="240">
            118 callgsubr
            121 145 return
          </CharString>
          <CharString index="241">
            -29 -77 -29 -92 70 callsubr
            return
          </CharString>
          <CharString index="242">
            84 -49 49 -80 -27 -26 -1 -19 -47 return
          </CharString>
          <CharString index="243">
            -13 148 156 76 return
          </CharString>
          <CharString index="244">
            149 171 82 return
          </CharString>
          <CharString index="245">
            -6 82 -82 97 149 60 153 190 callgsubr
            hintmask 10101111
            return
          </CharString>
          <CharString index="246">
            -36 -39 -39 -18 -37 -41 callgsubr
            146 callgsubr
            hvcurveto
            return
          </CharString>
          <CharString index="247">
            rmoveto
            -33 callsubr
            43 48 27 51 19 hvcurveto
            -3 -9 -2 -11 -2 -13 rrcurveto
            endchar
          </CharString>
          <CharString index="248">
            -24 -88 -37 -85 -4 callsubr
            73 73 22 94 35 73 81 rlinecurve
            return
          </CharString>
          <CharString index="249">
            199 callsubr
            -24 callsubr
            vhcurveto
            return
          </CharString>
          <CharString index="250">
            -110 -75 -224 -98 -24 -10 13 20 9 2 12 3 15 vhcurveto
            72 340 rlineto
            -144 hlineto
            endchar
          </CharString>
          <CharString index="251">
            -27 151 callsubr
            -14 178 callgsubr
            return
          </CharString>
          <CharString index="252">
            17 79 rlineto
            -350 hlineto
            -18 -79 rlineto
            endchar
          </CharString>
          <CharString index="253">
            152 60 151 return
          </CharString>
          <CharString index="254">
            -3 -7 -6 -3 -19 hhcurveto
            -31 -10 17 -72 callgsubr
            3 11 hvcurveto
            115 540 -148 -20 rlineto
            return
          </CharString>
          <CharString index="255">
            -80 56 -48 91 188 71 147 84 return
          </CharString>
          <CharString index="256">
            hvcurveto
            120 8 110 87 116 vvcurveto
            return
          </CharString>
          <CharString index="257">
            -57 -99 -55 -57 -51 -3 return
          </CharString>
          <CharString index="258">
            -4 90 362 61 hstem
            return
          </CharString>
          <CharString index="259">
            1 callgsubr
            72 340 rlineto
            return
          </CharString>
          <CharString index="260">
            hhcurveto
            77 16 5 63 13 41 rrcurveto
            -9 -28 -31 -3 -31 return
          </CharString>
          <CharString index="261">
            156 callgsubr
            hintmask 00000000
            return
          </CharString>
          <CharString index="262">
            3 vhcurveto
            -144 -668 rlineto
            return
          </CharString>
          <CharString index="263">
            19 6 2 4 11 return
          </CharString>
          <CharString index="264">
            hhcurveto
            -19 callgsubr
            99 59 182 71 24 11 -13 -39 3 hvcurveto
            -19 -7 -12 -18 -28 vvcurveto
            return
          </CharString>
          <CharString index="265">
            -251 -57 rmoveto
            19 callgsubr
          </CharString>
          <CharString index="266">
            -6 84 -84 97 149 60 156 234 callsubr
            hintmask 10111100
            return
          </CharString>
          <CharString index="267">
            47 193 54 hstemhm
            -38 74 29 126 hintmask 00000000
            return
          </CharString>
          <CharString index="268">
            210 callsubr
            hstem
            -13 146 return
          </CharString>
          <CharString index="269">
            -21 80 190 66 388 47 hstemhm
            return
          </CharString>
          <CharString index="270">
            18 -305 rlineto
            140 hlineto
            148 303 -15 -67 136 callgsubr
            return
          </CharString>
          <CharString index="271">
            167 callgsubr
            vhcurveto
            return
          </CharString>
          <CharString index="272">
            rmoveto
            44 35 36 44 44 -35 35 -44 -44 -36 -35 -44 -44 36 -36 44 hvcurveto
            endchar
          </CharString>
          <CharString index="273">
            -6 79 -79 97 44 87 210 71 hstemhm
            416 49 121 145 hintmask 00000000
            return
          </CharString>
          <CharString index="274">
            -6 84 -84 97 365 53 106 callsubr
            return
          </CharString>
          <CharString index="275">
            -145 hlineto
            -35 -167 rlineto
            return
          </CharString>
          <CharString index="276">
            -6 97 -97 506 return
          </CharString>
          <CharString index="277">
            53 52 32 71 5 return
          </CharString>
          <CharString index="278">
            97 362 103 return
          </CharString>
          <CharString index="279">
            100 rmoveto
            62 8 -67 -28 hvcurveto
            -91 -24 -70 -41 -80 vvcurveto
            -71 53 -39 69 vhcurveto
            return
          </CharString>
          <CharString index="280">
            14 27 7 0 13 3 8 vhcurveto
            return
          </CharString>
          <CharString index="281">
            61 214 callgsubr
            172 81 return
          </CharString>
          <CharString index="282">
            122 580 rlineto
            -145 hlineto
            return
          </CharString>
          <CharString index="283">
            170 callsubr
            vhcurveto
            return
          </CharString>
          <CharString index="284">
            -65 -88 184 callgsubr
            return
          </CharString>
          <CharString index="285">
            97 -95 184 callsubr
            return
          </CharString>
          <CharString index="286">
            -6 97 -91 91 return
          </CharString>
          <CharString index="287">
            -66 -250 62 876 62 hstem
            -24 405 vstem
            169 -250 rmoveto
            return
          </CharString>
          <CharString index="288">
            307 hmoveto
            75 349 rlineto
            15 20 25 12 33 hhcurveto
            29 25 -15 -55 return
          </CharString>
          <CharString index="289">
            511 rmoveto
            150 callsubr
            rrcurveto
            return
          </CharString>
          <CharString index="290">
            561 189 hstem
            return
          </CharString>
          <CharString index="291">
            90 326 61 return
          </CharString>
          <CharString index="292">
            60 19 -20 64 hhcurveto
            68 1 36 69 hvcurveto
            -24 -27 -11 -14 -37 hhcurveto
            return
          </CharString>
          <CharString index="293">
            87 callsubr
            -167 -787 return
          </CharString>
          <CharString index="294">
            -48 -38 -31 -31 -35 hvcurveto
            13 62 rlineto
            -144 hlineto
            -106 -500 rlineto
            return
          </CharString>
          <CharString index="295">
            156 callsubr
            hvcurveto
            endchar
          </CharString>
          <CharString index="296">
            -61 45 -67 101 return
          </CharString>
          <CharString index="297">
            hhcurveto
            -44 -198 136 callgsubr
            -55 37 -51 81 return
          </CharString>
          <CharString index="298">
            -56 callgsubr
            -52 -21 -20 -36 -43 hhcurveto
            -31 -9 17 25 hvcurveto
            56 return
          </CharString>
          <CharString index="299">
            -128 rmoveto
            -88 -15 90 424 rlineto
            return
          </CharString>
          <CharString index="300">
            -56 callgsubr
            221 callsubr
            return
          </CharString>
          <CharString index="301">
            -6 97 482 122 hstemhm
            return
          </CharString>
          <CharString index="302">
            -7 -18 96 615 59 return
          </CharString>
          <CharString index="303">
            61 hstemhm
            222 149 return
          </CharString>
          <CharString index="304">
            13 63 18 -305 rlineto
            return
          </CharString>
          <CharString index="305">
            242 callgsubr
            rlineto
            return
          </CharString>
          <CharString index="306">
            107 -43 53 -85 return
          </CharString>
          <CharString index="307">
            -131 29 27 -54 73 hhcurveto
            53 94 -57 callsubr
            return
          </CharString>
          <CharString index="308">
            -106 -500 rlineto
            144 hlineto
            128 callgsubr
            51 15 27 return
          </CharString>
          <CharString index="309">
            -51 -240 rlineto
            return
          </CharString>
          <CharString index="310">
            55 105 147 return
          </CharString>
          <CharString index="311">
            -25 callgsubr
            -18 vvcurveto
            hintmask 01101000
            -84 -26 callgsubr
            53 return
          </CharString>
          <CharString index="312">
            133 callsubr
            hintmask 00000000
            return
          </CharString>
          <CharString index="313">
            hmoveto
            148 304 rlineto
            -32 -150 -4 -21 -19 vvcurveto
            return
          </CharString>
          <CharString index="314">
            561 rmoveto
            91 189 rlineto
            -105 hlineto
            -61 -189 rlineto
            return
          </CharString>
          <CharString index="315">
            53 53 60 80 60 118 91 -84 84 hstemhm
            -37 82 return
          </CharString>
          <CharString index="316">
            60 -6 91 -91 97 352 62 return
          </CharString>
          <CharString index="317">
            184 callsubr
            109 134 return
          </CharString>
          <CharString index="318">
            hintmask 00000000
            hintmask 10101000
            return
          </CharString>
          <CharString index="319">
            141 hintmask 00000000
            return
          </CharString>
          <CharString index="320">
            -39 -72 hhcurveto
            -56 return
          </CharString>
          <CharString index="321">
            397 154 rmoveto
            -15 -33 -21 -32 -24 -9 rrcurveto
            return
          </CharString>
          <CharString index="322">
            hhcurveto
            -97 -23 64 92 204 97 263 111 return
          </CharString>
          <CharString index="323">
            -136 -29 -86 -131 -66 hhcurveto
            -44 -30 32 73 return
          </CharString>
          <CharString index="324">
            123 callgsubr
            endchar
          </CharString>
          <CharString index="325">
            -6 54 -54 92 -90 95 return
          </CharString>
          <CharString index="326">
            6 vlineto
            29 -24 22 -57 return
          </CharString>
          <CharString index="327">
            134 141 131 return
          </CharString>
          <CharString index="328">
            -5 -19 -2 -19 -19 vvcurveto
            return
          </CharString>
          <CharString index="329">
            -135 -51 -134 -90 -20 -22 8 15 -5 return
          </CharString>
          <CharString index="330">
            0 37 254 37 46 37 256 35 hstemhm
            return
          </CharString>
          <CharString index="331">
            -79 60 -34 95 127 84 83 102 64 vhcurveto
            return
          </CharString>
          <CharString index="332">
            80 callgsubr
            -22 45 -64 29 hvcurveto
            return
          </CharString>
          <CharString index="333">
            -10 callsubr
            196 callgsubr
            return
          </CharString>
          <CharString index="334">
            137 callsubr
            30 146 callsubr
            return
          </CharString>
          <CharString index="335">
            hlineto
            65 290 rlineto
            -88 hlineto
            -52 -290 rlineto
            return
          </CharString>
          <CharString index="336">
            -6 97 -97 756 hstemhm
            -8 return
          </CharString>
          <CharString index="337">
            -6 53 -51 90 154 60 return
          </CharString>
          <CharString index="338">
            hlineto
            -24 -112 rlineto
            return
          </CharString>
          <CharString index="339">
            -17 96 298 59 return
          </CharString>
          <CharString index="340">
            -83 -69 -77 -76 -5 return
          </CharString>
          <CharString index="341">
            209 callgsubr
            hintmask 00000000
            return
          </CharString>
          <CharString index="342">
            52 244 rlineto
            -19 11 23 -17 51 hhcurveto
            return
          </CharString>
          <CharString index="343">
            -94 -35 -180 -105 -15 -14 0 -1 -15 return
          </CharString>
          <CharString index="344">
            -226 -21 59 134 48 97 hstem
            -8 return
          </CharString>
          <CharString index="345">
            582 174 callgsubr
            return
          </CharString>
          <CharString index="346">
            101 -63 58 -85 -104 -55 -77 -78 -70 vhcurveto
            return
          </CharString>
          <CharString index="347">
            hintmask 00000000
            hintmask 10100000
            return
          </CharString>
          <CharString index="348">
            0 750 hstem
            return
          </CharString>
        <CharString name=".notdef">
          -81 endchar
        </CharString>
        <CharString name="A">
          202 399 59 hstem
          84 120 vstem
          535 -103 callsubr
          -77 -363 rcurveline
          86 -35 callsubr
          endchar
        </CharString>
        <CharString name="A.salt">
          124 366 52 hstem
          8 120 vstem
          459 hmoveto
          157 736 rlineto
          -1 hlineto
          1 1 rlineto
          9 -24 -32 5 -24 hhcurveto
          -238 -290 -563 -189 -106 65 -3 69 -3 hvcurveto
          8 -14 -3 51 vvcurveto
          96 42 173 64 154 vhcurveto
          158 hlineto
          -77 -366 rlineto
          88 418 rmoveto
          -147 hlineto
          59 126 71 106 73 32 rrcurveto
          endchar
        </CharString>
        <CharString name="AE">
          298 0 106 239 74 -20 56 185 91 hstemhm
          84 120 hintmask 00000000
          hintmask 11011000
          760 hmoveto
          21 106 rlineto
          -224 hlineto
          51 239 rlineto
          151 hlineto
          20 74 rlineto
          -155 hlineto
          54 253 rlineto
          -15 39 34 -17 51 hhcurveto
          82 11 66 44 14 hvcurveto
          -15 -44 -38 -4 -35 -70 -55 20 -55 hhcurveto
          hintmask 10111000
          -118 -130 -137 -162 -101 hvcurveto
          2 -22 -20 1 -17 hhcurveto
          -103 -92 -54 -61 -45 28 -18 29 43 18 18 21 15 -8 16 -5 hvcurveto
          15 36 42 12 60 4 rrcurveto
          -88 -152 -59 -163 -85 vvcurveto
          -106 65 -3 69 -3 vhcurveto
          8 -14 -3 51 vvcurveto
          105 55 189 74 162 vhcurveto
          43 -3 41 -10 51 -23 -77 -363 rcurveline
          86 407 rmoveto
          -39 15 -42 11 -43 8 56 113 65 92 61 33 rrcurveto
          endchar
        </CharString>
        <CharString name="Aacute">
          202 399 59 hstem
          84 120 vstem
          535 -103 callsubr
          -77 -363 rcurveline
          86 -35 callsubr
          26 132 -98 callgsubr
          endchar
        </CharString>
        <CharString name="Acircumflex">
          202 399 59 hstem
          84 120 vstem
          535 -103 callsubr
          -77 -363 rcurveline
          86 -35 callsubr
          165 132 rmoveto
          -60 189 rlineto
          -21 hlineto
          -212 -189 rlineto
          44 hlineto
          157 80 60 -80 rlineto
          endchar
        </CharString>
        <CharString name="Adieresis">
          202 399 59 365 122 hstemhm
          84 120 187 161 -122 105 75 122 hintmask 00000000
          hintmask 11101100
          535 -103 callsubr
          rrcurveto
          hintmask 11110100
          -77 -363 rlineto
          86 -35 callsubr
          hintmask 11101100
          -44 144 rmoveto
          hintmask 11110100
          33 28 26 35 33 -28 28 -33 hvcurveto
          hintmask 11101100
          -35 -26 -28 -33 -35 26 -26 35 hvcurveto
          241 61 rmoveto
          -107 callgsubr
          endchar
        </CharString>
        <CharString name="Agrave">
          202 399 59 hstem
          84 120 vstem
          535 -103 callsubr
          -77 -363 rcurveline
          86 -35 callsubr
          36 132 -18 callgsubr
        </CharString>
        <CharString name="Aogonek">
          202 232 callgsubr
          541 59 hstemhm
          84 120 157 83 91 14 hintmask 00000000
          hintmask 01111100
          535 -103 callsubr
          -77 -363 rcurveline
          41 hlineto
          -47 -38 -24 -42 -35 vvcurveto
          hintmask 10111100
          -13 callgsubr
          35 27 34 27 15 hvcurveto
          -21 -35 callsubr
          endchar
        </CharString>
        <CharString name="Aring">
          202 399 59 344 35 93 33 hstem
          84 120 281 50 70 37 vstem
          535 -103 callsubr
          -77 -363 rcurveline
          86 -35 callsubr
          107 207 17 callsubr
        </CharString>
        <CharString name="Atilde">
          202 399 59 361 78 -41 74 hstemhm
          84 120 211 callgsubr
          535 -103 callsubr
          -77 -363 rcurveline
          86 -35 callsubr
          269 241 118 callsubr
          hintmask 10110000
          -38 callgsubr
          hintmask 11010000
          25 callgsubr
        </CharString>
        <CharString name="B">
          -46 callgsubr
        </CharString>
        <CharString name="B.salt">
          167 -28 92 322 48 270 46 hstemhm
          6 93 350 149 -119 105 hintmask 00000000
          hintmask 11110100
          238 hmoveto
          6 30 rlineto
          -41 39 41 -17 39 hhcurveto
          hintmask 11111000
          125 110 175 136 72 -33 62 -81 15 hvcurveto
          hintmask 11110100
          64 39 36 59 59 vvcurveto
          83 -74 78 -144 -183 -177 -126 -139 -68 40 -24 67 vhcurveto
          8 -14 9 51 vvcurveto
          152 116 91 138 101 25 -49 -53 -80 -59 -88 -83 vhcurveto
          -6 hlineto
          47 222 -148 -20 -136 -636 rlineto
          226 383 rmoveto
          3 19 19 0 7 hhcurveto
          hintmask 11111000
          63 21 -49 -57 -97 -58 -119 -72 -20 -21 8 21 -20 hvcurveto
          endchar
        </CharString>
        <CharString name="C">
          -91 callgsubr
          endchar
        </CharString>
        <CharString name="Cacute">
          -91 callgsubr
          -111 641 -98 callgsubr
          endchar
        </CharString>
        <CharString name="Ccaron">
          -91 callgsubr
          62 830 rmoveto
          -44 hlineto
          -157 -80 -60 80 rlineto
          -32 hlineto
          60 -189 rlineto
          21 hlineto
          endchar
        </CharString>
        <CharString name="Ccedilla">
          31 230 callgsubr
          42 96 623 47 hstemhm
          19 166 94 83 92 81 hintmask 00000000
          hintmask 10111111
          500 180 rmoveto
          -63 -47 -69 -37 -79 215 callsubr
          -88 callsubr
          -175 66 -67 140 -4 hvcurveto
          -37 -103 rlineto
          95 callgsubr
          hintmask 01111111
          -19 -12 -16 -16 -9 hvcurveto
          hintmask 10111111
          93 callsubr
          21 52 90 10 117 54 48 120 rlinecurve
          endchar
        </CharString>
        <CharString name="Ccircumflex">
          -91 callgsubr
          -28 641 rmoveto
          -60 189 rlineto
          -21 hlineto
          -212 -189 rlineto
          44 hlineto
          157 80 60 -80 rlineto
          endchar
        </CharString>
        <CharString name="D">
          197 -13 88 629 46 hstem
          6 93 408 138 vstem
          238 hmoveto
          8 40 rlineto
          -37 43 40 -16 39 48 callgsubr
          -20 -19 7 13 -18 vhcurveto
          120 561 -148 -20 -136 -636 rlineto
          endchar
        </CharString>
        <CharString name="E">
          195 callsubr
          hstem
          119 callsubr
          vstem
          461 180 rmoveto
          -67 -37 -87 -35 -61 hhcurveto
          -68 -27 45 56 -101 callgsubr
          -93 55 -83 129 121 119 71 117 53 vhcurveto
          endchar
        </CharString>
        <CharString name="E.salt">
          88 0 101 244 74 211 108 -70 82 hstemhm
          9 93 218 callgsubr
          457 hmoveto
          20 101 rlineto
          -224 hlineto
          53 244 rlineto
          150 hlineto
          20 74 rlineto
          -154 hlineto
          49 230 rlineto
          -11 47 46 -8 47 153 callsubr
          hhcurveto
          hintmask 11011000
          -64 -62 27 callgsubr
        </CharString>
        <CharString name="E_x">
          331 -16 93 -83 171 callsubr
          137 59 hstemhm
          119 callsubr
          230 59 hintmask 00000000
          hintmask 10111110
          797 -56 callgsubr
          hintmask 01111110
          -90 callgsubr
          50 rlineto
          62 callgsubr
          -106 callgsubr
          -36 -35 -59 -60 -64 vhcurveto
          -32 178 -27 callsubr
          50 -274 rlineto
          hintmask 10111110
          -66 -58 -91 -45 -73 hhcurveto
          -59 -43 30 72 -101 callgsubr
          -125 86 -49 104 112 137 57 85 72 vhcurveto
          hintmask 01111110
          -93 23 28 -39 64 hhcurveto
          54 96 -57 callsubr
          endchar
        </CharString>
        <CharString name="Eacute">
          195 callsubr
          hstem
          119 callsubr
          vstem
          461 180 rmoveto
          -67 -37 -87 -35 -61 hhcurveto
          -68 -27 45 56 -101 callgsubr
          -93 55 -83 129 121 119 71 117 53 vhcurveto
          -79 641 -98 callgsubr
          endchar
        </CharString>
        <CharString name="Ecircumflex">
          195 callsubr
          hstem
          119 callsubr
          vstem
          461 180 rmoveto
          -67 -37 -87 -35 -61 hhcurveto
          -68 -27 45 56 -101 callgsubr
          -93 55 -83 129 121 119 71 117 53 vhcurveto
          11 641 rmoveto
          -60 189 rlineto
          -21 hlineto
          -212 -189 rlineto
          44 hlineto
          157 80 60 -80 rlineto
          endchar
        </CharString>
        <CharString name="Edieresis">
          -7 -18 96 615 130 callsubr
          122 hintmask 00000000
          hintmask 11110100
          461 180 rmoveto
          -67 -37 -87 -35 -61 hhcurveto
          -68 -27 45 56 -101 callgsubr
          -93 55 -83 129 121 119 71 117 53 vhcurveto
          hintmask 11101010
          -124 714 rmoveto
          -107 callgsubr
          180 hmoveto
          -107 callgsubr
          endchar
        </CharString>
        <CharString name="Egrave">
          195 callsubr
          hstem
          119 callsubr
          vstem
          461 180 rmoveto
          -67 -37 -87 -35 -61 hhcurveto
          -68 -27 45 56 -101 callgsubr
          -93 55 -83 129 121 119 71 117 53 vhcurveto
          -98 641 -18 callgsubr
        </CharString>
        <CharString name="Eogonek">
          -7 232 callgsubr
          136 90 622 44 hstemhm
          93 135 -7 83 112 83 hintmask 00000000
          hintmask 01110110
          461 180 rmoveto
          -64 -37 -44 -32 -77 216 callgsubr
          hintmask 01111010
          41 callgsubr
          24 26 2 5 25 vhcurveto
          hintmask 10110110
          -47 -37 -25 -43 -36 vvcurveto
          -13 callgsubr
          124 133 -12 47 142 hvcurveto
          endchar
        </CharString>
        <CharString name="Eth">
          197 -13 88 270 74 285 46 hstem
          6 93 408 138 vstem
          238 hmoveto
          8 40 rlineto
          -37 43 40 -16 39 hhcurveto
          148 129 234 259 140 -57 130 -231 -167 -184 -127 -133 -72 38 -25 69 hvcurveto
          8 -14 9 51 vvcurveto
          152 108 91 162 115 23 -71 -125 -192 -73 -241 -119 -20 -19 7 13 -18 vhcurveto
          53 250 rlineto
          75 hlineto
          20 74 rlineto
          -79 hlineto
          51 237 -148 -20 -46 -217 rlineto
          -35 hlineto
          -20 -74 rlineto
          39 hlineto
          -74 -345 rlineto
          endchar
        </CharString>
        <CharString name="Euro">
          107 -6 90 200 50 65 50 254 47 hstem
          82 157 271 83 vstem
          525 124 rmoveto
          -31 -39 -38 -9 -77 hhcurveto
          -108 -24 56 131 hvcurveto
          13 185 vlineto
          14 50 rlineto
          -196 hlineto
          3 21 1 21 4 23 rrcurveto
          199 hlineto
          14 50 rlineto
          -202 hlineto
          133 32 63 121 85 hhcurveto
          64 5 -55 -16 -25 -20 -49 -24 -8 hvcurveto
          -23 19 22 -3 16 hhcurveto
          51 19 39 53 96 -81 38 -93 -188 -91 -141 -160 -37 hvcurveto
          -67 hlineto
          -14 -50 rlineto
          71 hlineto
          -8 -65 rlineto
          -74 hlineto
          -14 -50 rlineto
          85 -35 hlineto
          -205 118 -50 101 93 73 22 79 60 vhcurveto
          endchar
        </CharString>
        <CharString name="F">
          -7 376 74 180 108 -70 82 hstemhm
          9 93 211 callgsubr
          232 hmoveto
          81 376 rlineto
          146 hlineto
          16 74 rlineto
          -146 hlineto
          42 199 rlineto
          -11 47 46 -8 47 153 callsubr
          hhcurveto
          hintmask 10110000
          -64 -62 27 callgsubr
        </CharString>
        <CharString name="F_i">
          260 -6 97 285 74 144 136 -62 82 hstemhm
          9 93 hintmask 00000000
          hintmask 01011000
          252 hmoveto
          81 376 rlineto
          126 hlineto
          16 74 rlineto
          -126 hlineto
          43 200 rlineto
          hintmask 01101000
          -21 83 44 -35 83 hhcurveto
          79 32 83 72 13 hvcurveto
          -15 -55 -47 -4 -43 hhcurveto
          hintmask 11011000
          -90 -73 20 -68 hhcurveto
          -247 -94 -127 -133 -72 38 -25 69 hvcurveto
          8 -14 9 51 vvcurveto
          165 59 42 80 vhcurveto
          11 hlineto
          -144 -668 rlineto
          618 179 rmoveto
          -100 callgsubr
          endchar
        </CharString>
        <CharString name="G">
          112 -207 50 144 81 41 83 511 47 hstemhm
          19 154 -104 84 311 95 hintmask 00000000
          hintmask 11110110
          316 -34 rmoveto
          -104 -24 -30 -19 -46 hhcurveto
          -43 -20 33 35 37 23 39 47 20 15 -5 -21 25 hvcurveto
          4 15 2 13 12 vvcurveto
          64 -58 3 -40 -79 -43 -69 -68 -68 44 -70 95 164 60 96 153 32 vhcurveto
          82 376 -129 1 -43 -190 rlineto
          -28 -21 -27 -9 -37 hhcurveto
          hintmask 11111010
          -83 -33 77 88 160 112 186 110 64 5 -55 -16 -25 -20 -49 -24 -8 hvcurveto
          -21 19 34 -5 16 hhcurveto
          51 19 39 53 96 -93 38 -93 -223 -131 -194 -191 -139 51 -117 164 8 56 4 32 58 hvcurveto
          endchar
        </CharString>
        <CharString name="H">
          199 376 74 hstem
          12 93 vstem
          535 31 callgsubr
          -64 -298 rlineto
          -147 hlineto
          64 298 rlineto
          -95 callsubr
          144 hlineto
          80 376 rlineto
          147 hlineto
          -80 -376 rlineto
          endchar
        </CharString>
        <CharString name="I">
          -91 219 callgsubr
          vstem
          238 hmoveto
          138 callgsubr
          -104 callgsubr
          108 52 74 88 36 vhcurveto
          -145 -679 rlineto
          endchar
        </CharString>
        <CharString name="IJ">
          197 -207 50 hstemhm
          6 93 13 84 hintmask 00000000
          hintmask 11000000
          359 -34 rmoveto
          -100 -21 -32 -23 -39 hhcurveto
          hintmask 11100000
          -44 -27 29 39 40 29 33 36 17 17 -8 -15 15 hvcurveto
          5 13 2 11 9 vvcurveto
          34 -26 24 -41 6 vhcurveto
          147 690 rlineto
          1 -13 -12 1 -15 hhcurveto
          hintmask 11000000
          93 callgsubr
          52 74 88 36 vhcurveto
          hintmask 11100000
          -145 -679 rlineto
          33 hlineto
          -10 -20 -5 -23 -27 vvcurveto
          -79 49 -58 112 156 65 108 139 29 vhcurveto
          150 710 -150 -33 rlineto
          endchar
        </CharString>
        <CharString name="Iacute">
          -91 0 1000 hstem
          6 93 vstem
          238 hmoveto
          138 callgsubr
          -104 callgsubr
          108 52 74 88 36 vhcurveto
          -145 -679 rlineto
          250 811 -98 callgsubr
          endchar
        </CharString>
        <CharString name="Icircumflex">
          -91 0 1000 hstem
          6 93 vstem
          238 hmoveto
          138 callgsubr
          -104 callgsubr
          108 52 74 88 36 vhcurveto
          -145 -679 rlineto
          350 811 rmoveto
          -60 189 rlineto
          -21 hlineto
          -212 -189 rlineto
          44 hlineto
          157 80 60 -80 rlineto
          endchar
        </CharString>
        <CharString name="Idieresis">
          -91 0 945 -122 122 hstemhm
          6 93 68 71 109 122 169 callgsubr
          238 hmoveto
          138 callgsubr
          -104 callgsubr
          108 52 74 88 36 vhcurveto
          -145 -679 rlineto
          hintmask 01111000
          195 884 rmoveto
          -107 callgsubr
          180 hmoveto
          -107 callgsubr
          endchar
        </CharString>
        <CharString name="Igrave">
          -91 0 1000 hstem
          6 93 vstem
          238 hmoveto
          138 callgsubr
          -104 callgsubr
          108 52 74 88 36 vhcurveto
          -145 -679 rlineto
          211 811 -18 callgsubr
        </CharString>
        <CharString name="J">
          70 -207 50 144 81 hstem
          17 84 86 93 vstem
          264 -34 rmoveto
          -104 -24 -26 -19 -45 hhcurveto
          -29 -39 18 52 37 23 37 47 20 15 -5 -21 25 hvcurveto
          4 15 2 13 12 vvcurveto
          64 -58 3 -40 -79 -43 -66 -68 -84 52 -57 96 164 67 94 153 32 vhcurveto
          150 710 rlineto
          -40 hlineto
          93 callgsubr
          53 75 88 36 vhcurveto
          endchar
        </CharString>
        <CharString name="K">
          135 381 45 hstemhm
          6 93 259 138 -85 134 211 callgsubr
          238 hmoveto
          80 377 rlineto
          3 12 12 1 9 hhcurveto
          45 15 -28 -40 hvcurveto
          hintmask 11100000
          -76 -53 -120 29 callgsubr
          hintmask 11010000
          64 49 106 83 vvcurveto
          61 -27 46 -97 vhcurveto
          -11 -11 -1 -13 hhcurveto
          278 320 rlineto
          -105 hlineto
          -1 1 -162 -219 -64 -85 65 306 rcurveline
          -95 callsubr
          endchar
        </CharString>
        <CharString name="L">
          -87 63 callgsubr
          -127 -105 105 24 -104 hvcurveto
          154 718 rlineto
          -104 callgsubr
          108 52 74 88 36 vhcurveto
          endchar
        </CharString>
        <CharString name="Lslash">
          -74 63 callgsubr
          -128 -104 105 24 -104 hvcurveto
          84 385 127 78 4 61 -116 -69 55 263 rlineto
          -104 callgsubr
          108 52 74 88 36 vhcurveto
          -66 -311 -76 -49 -2 -53 65 39 rlineto
          endchar
        </CharString>
        <CharString name="M">
          321 6 callsubr
        </CharString>
        <CharString name="N">
          202 219 callgsubr
          vstem
          555 31 callgsubr
          -109 -542 -79 530 rlineto
          15 -29 -33 -1 -31 hhcurveto
          -172 -111 -145 -115 -72 38 -25 69 hvcurveto
          8 -14 9 51 vvcurveto
          107 51 75 88 36 vhcurveto
          -144 -679 rlineto
          144 hlineto
          111 523 85 -523 rlineto
          endchar
        </CharString>
        <CharString name="N.salt">
          203 -6 97 568 91 hstem
          6 93 406 141 vstem
          669 191 callsubr
          101 338 80 vvcurveto
          100 -73 43 -63 -32 -46 -8 -49 -47 vhcurveto
          12 55 rlineto
          -104 callgsubr
          100 46 73 80 39 vhcurveto
          -144 -673 rlineto
          157 hlineto
          124 585 rlineto
          1 vlineto
          41 16 34 32 32 hhcurveto
          24 37 -8 -66 hvcurveto
          -64 -98 -346 -68 vvcurveto
          -57 30 -56 88 53 77 21 164 56 vhcurveto
          endchar
        </CharString>
        <CharString name="Nacute">
          236 0 1000 hstem
          6 93 vstem
          555 31 callgsubr
          -109 -542 -79 530 rlineto
          15 -29 -33 -1 -31 hhcurveto
          -172 -111 -145 -115 -72 38 -25 69 hvcurveto
          8 -14 9 51 vvcurveto
          107 51 75 88 36 vhcurveto
          -144 -679 rlineto
          144 hlineto
          111 523 85 -523 rlineto
          137 811 -98 callgsubr
          endchar
        </CharString>
        <CharString name="Ntilde">
          220 819 78 -41 74 hstemhm
          6 93 240 callsubr
          555 31 callgsubr
          -109 -542 -79 530 rlineto
          15 -29 -33 -1 -31 hhcurveto
          -172 -111 -145 -115 -72 38 -25 69 hvcurveto
          8 -14 9 51 vvcurveto
          107 51 75 88 36 vhcurveto
          -144 -679 rlineto
          144 hlineto
          111 523 85 -523 rlineto
          269 920 6 callgsubr
        </CharString>
        <CharString name="O">
          199 -97 callsubr
          endchar
        </CharString>
        <CharString name="OE">
          380 0 106 239 74 211 108 -34 46 hstemhm
          16 91 1 148 267 133 hintmask 00000000
          hintmask 11011010
          745 hmoveto
          21 106 rlineto
          -244 hlineto
          58 66 37 88 20 85 rrcurveto
          127 hlineto
          20 74 rlineto
          -133 hlineto
          3 26 2 25 24 vvcurveto
          hintmask 11101010
          68 -13 60 -31 44 vhcurveto
          -7 66 62 -29 79 153 callsubr
          -64 -62 12 -40 hhcurveto
          hintmask 11011010
          -58 -37 -7 -12 -34 hvcurveto
          12 -30 -37 7 -43 hhcurveto
          -211 -192 -133 -140 -61 37 -23 64 hvcurveto
          8 -10 7 39 vvcurveto
          159 135 98 153 105 23 -59 -116 -202 -108 -252 -101 vhcurveto
          hintmask 11010110
          -41 -17 48 68 154 84 256 91 55 hvcurveto
          7 -19 -16 1 -17 hhcurveto
          -180 -91 -307 -162 -146 74 -55 105 25 24 3 5 23 hvcurveto
          -1 -2 rlineto
          endchar
        </CharString>
        <CharString name="Oacute">
          192 -97 callsubr
          41 155 -98 callgsubr
          endchar
        </CharString>
        <CharString name="Ocircumflex">
          192 -97 callsubr
          134 155 rmoveto
          -60 189 rlineto
          -21 hlineto
          -212 -189 rlineto
          44 hlineto
          157 80 60 -80 rlineto
          endchar
        </CharString>
        <CharString name="Odieresis">
          192 -6 81 629 46 73 122 hstemhm
          16 91 1 148 32 156 callgsubr
          -67 133 hintmask 00000000
          hintmask 11001001
          431 656 rmoveto
          7 -19 -16 1 -17 hhcurveto
          -180 -91 -307 -162 -146 74 -55 105 262 107 307 193 149 -62 107 -175 hvcurveto
          hintmask 11010001
          -211 -192 -133 -140 -61 37 -23 64 hvcurveto
          8 -10 7 39 vvcurveto
          159 135 98 153 105 23 -59 -116 -202 -108 -252 -101 vhcurveto
          hintmask 11001001
          -41 -17 48 68 154 84 256 91 55 hvcurveto
          hintmask 11110110
          -21 228 rmoveto
          -107 callgsubr
          180 hmoveto
          -107 callgsubr
          endchar
        </CharString>
        <CharString name="Ograve">
          192 -97 callsubr
          -5 155 -18 callgsubr
        </CharString>
        <CharString name="Oslash">
          192 659 43 hstemhm
          15 88 1 143 257 128 211 callgsubr
          317 -71 rmoveto
          15 70 rlineto
          212 38 88 259 166 vvcurveto
          117 -41 88 -112 27 vhcurveto
          12 56 rlineto
          -52 hlineto
          -11 -49 rlineto
          1 -8 -8 0 -8 hhcurveto
          -204 -185 -124 -132 -57 37 -21 61 hvcurveto
          7 -10 7 36 vvcurveto
          149 130 92 148 14 13 -1 -2 11 vhcurveto
          -9 -41 rlineto
          5 -14 -15 2 -16 hhcurveto
          hintmask 10110000
          -173 -88 -288 -151 -136 71 -53 102 hvcurveto
          2 hlineto
          -14 -65 rlineto
          30 141 rmoveto
          -35 7 -13 42 60 vvcurveto
          140 77 235 85 56 vhcurveto
          57 24 rmoveto
          31 -27 7 -45 -67 vvcurveto
          -158 -73 -190 -80 -59 vhcurveto
          endchar
        </CharString>
        <CharString name="Otilde">
          192 -6 81 629 46 69 78 -41 74 hstemhm
          16 91 1 148 267 133 hintmask 00000000
          hintmask 11000110
          431 656 rmoveto
          7 -19 -16 1 -17 hhcurveto
          -180 -91 -307 -162 -146 74 -55 105 262 107 307 193 149 -62 107 -175 hvcurveto
          hintmask 11001010
          -211 -192 -133 -140 -61 37 -23 64 hvcurveto
          8 -10 7 39 vvcurveto
          159 135 98 153 105 23 -59 -116 -202 -108 -252 -101 vhcurveto
          hintmask 11000110
          -41 -17 48 68 154 84 256 91 55 hvcurveto
          hintmask 11101010
          238 264 118 callsubr
          hintmask 11011010
          -38 callgsubr
          hintmask 11101010
          25 callgsubr
        </CharString>
        <CharString name="P">
          5 callsubr
        </CharString>
        <CharString name="Q">
          199 -113 84 23 81 45 37 547 46 hstemhm
          16 91 1 148 267 133 hintmask 00000000
          hintmask 10111010
          612 -27 rmoveto
          -1 -8 -7 -1 -7 hhcurveto
          -63 -33 38 43 -29 hvcurveto
          133 99 58 203 140 vvcurveto
          149 -62 107 -175 -211 -192 -133 -140 -61 37 -23 64 vhcurveto
          8 -10 7 39 vvcurveto
          159 135 98 153 105 23 -59 -116 -144 -56 -169 -67 -86 vhcurveto
          16 -21 -24 11 -35 hhcurveto
          hintmask 11110110
          -17 -21 -3 -6 -24 hvcurveto
          -3 13 1 14 16 vvcurveto
          154 84 256 91 55 vhcurveto
          7 -19 -16 1 -17 hhcurveto
          -180 -91 -307 -162 -146 74 -55 105 33 31 5 9 29 hvcurveto
          -59 19 21 -62 89 hhcurveto
          hintmask 10111010
          43 33 17 69 27 hvcurveto
          hintmask 11111010
          -260 113 rmoveto
          -8 -12 -14 -3 -12 hhcurveto
          -23 -16 14 27 -9 hvcurveto
          3 10 10 1 9 hhcurveto
          28 17 -14 -20 12 hvcurveto
          endchar
        </CharString>
        <CharString name="R">
          135 381 44 279 46 hstemhm
          6 93 259 138 -85 134 -66 105 hintmask 00000000
          hintmask 11100100
          238 hmoveto
          80 377 rlineto
          3 13 11 1 9 hhcurveto
          hintmask 11101000
          45 15 -28 -40 hvcurveto
          hintmask 11110000
          -76 -53 -120 29 callgsubr
          hintmask 11101000
          64 49 106 83 vvcurveto
          47 -16 38 -53 15 vhcurveto
          hintmask 11100100
          69 41 39 69 61 vvcurveto
          82 -70 78 -157 -167 -184 -127 -133 -72 38 -25 69 vhcurveto
          8 -14 9 51 vvcurveto
          152 108 91 162 78 32 -49 -56 -76 -59 -98 -83 vhcurveto
          -8 hlineto
          49 231 -148 -20 -136 -636 rlineto
          endchar
        </CharString>
        <CharString name="S">
          104 162 callsubr
          27 97 callgsubr
          416 -90 callsubr
          endchar
        </CharString>
        <CharString name="Sacute">
          104 162 callsubr
          -90 97 callgsubr
          299 -90 callsubr
          134 261 -98 callgsubr
          endchar
        </CharString>
        <CharString name="Scaron">
          104 162 callsubr
          -90 97 callgsubr
          299 -90 callsubr
          292 450 rmoveto
          -44 hlineto
          -157 -80 -60 80 rlineto
          -32 hlineto
          60 -189 rlineto
          21 hlineto
          endchar
        </CharString>
        <CharString name="T">
          10 callsubr
        </CharString>
        <CharString name="T_h">
          505 -6 97 322 91 134 85 -59 85 hstemhm
          6 93 655 212 callsubr
          hintmask 11011100
          971 179 rmoveto
          -52 -21 -20 -36 -43 -82 callgsubr
          -32 -44 -9 -49 -43 vhcurveto
          hintmask 11101100
          46 229 14 27 24 45 rrcurveto
          -19 -28 -44 -5 -49 hhcurveto
          hintmask 11011100
          -101 -124 26 -45 hhcurveto
          -247 -105 -127 -133 -72 38 -25 69 hvcurveto
          8 -14 9 51 vvcurveto
          158 89 41 112 5 vhcurveto
          -143 -664 rlineto
          144 hlineto
          hintmask 11101100
          141 655 47 -7 44 -7 41 -3 rlinecurve
          -137 -638 rlineto
          144 hlineto
          24 133 20 106 17 88 rrcurveto
          47 15 26 39 35 -73 callsubr
          -57 30 -56 88 53 77 21 164 56 vhcurveto
          endchar
        </CharString>
        <CharString name="T_i">
          278 -6 97 490 152 -59 75 hstemhm
          6 93 hintmask 00000000
          hintmask 00110000
          301 hmoveto
          137 637 rlineto
          hintmask 01010000
          -29 85 57 -27 47 hhcurveto
          36 67 19 81 19 -3 22 -8 25 hvcurveto
          -11 -27 -41 -3 -47 hhcurveto
          hintmask 10110000
          -98 -118 16 -41 hhcurveto
          -247 -94 -127 -133 -72 38 -25 69 hvcurveto
          8 -14 9 51 vvcurveto
          165 70 49 92 13 13 -1 -2 14 vhcurveto
          -144 -671 rlineto
          587 179 rmoveto
          -100 callgsubr
          endchar
        </CharString>
        <CharString name="Thorn">
          117 175 37 382 46 hstem
          6 93 383 111 vstem
          238 hmoveto
          37 175 rlineto
          29 hlineto
          180 109 141 127 100 -67 89 -152 8 hvcurveto
          24 110 -148 -20 -25 -114 rlineto
          -119 -42 -100 -96 -98 vvcurveto
          -72 38 -25 69 vhcurveto
          8 -14 9 51 vvcurveto
          100 40 72 75 39 vhcurveto
          -120 -562 rlineto
          189 212 rmoveto
          82 382 rlineto
          83 -3 34 -62 -71 vvcurveto
          -109 -79 -137 -106 vhcurveto
          endchar
        </CharString>
        <CharString name="U">
          250 -7 98 hstem
          0 93 62 136 vstem
          553 439 rmoveto
          -327 -72 -35 -21 -86 hhcurveto
          -51 -18 33 57 84 42 136 93 344 hvcurveto
          4 -21 -10 1 -17 hhcurveto
          -194 -184 -124 -141 -68 40 -24 67 hvcurveto
          9 -14 7 53 vvcurveto
          121 68 80 109 29 vhcurveto
          -33 -132 rlineto
          -43 -171 -39 -137 -100 vvcurveto
          -101 49 -58 144 225 58 139 304 64 vhcurveto
          66 312 -27 callsubr
          endchar
        </CharString>
        <CharString name="Uacute">
          253 -7 98 hstem
          0 93 62 136 vstem
          553 439 rmoveto
          -327 -72 -35 -21 -86 hhcurveto
          -51 -18 33 57 84 42 136 93 344 hvcurveto
          4 -21 -10 1 -17 hhcurveto
          -194 -184 -124 -141 -68 40 -24 67 hvcurveto
          9 -14 7 53 vvcurveto
          121 68 80 109 29 vhcurveto
          -33 -132 rlineto
          -43 -171 -39 -137 -100 vvcurveto
          -101 49 -58 144 225 58 139 304 64 vhcurveto
          66 312 -27 callsubr
          -94 63 -98 callgsubr
          endchar
        </CharString>
        <CharString name="Ucircumflex">
          253 -7 98 hstem
          0 93 62 136 vstem
          553 439 rmoveto
          -327 -72 -35 -21 -86 hhcurveto
          -51 -18 33 57 84 42 136 93 344 hvcurveto
          4 -21 -10 1 -17 hhcurveto
          -194 -184 -124 -141 -68 40 -24 67 hvcurveto
          9 -14 7 53 vvcurveto
          121 68 80 109 29 vhcurveto
          -33 -132 rlineto
          -43 -171 -39 -137 -100 vvcurveto
          -101 49 -58 144 225 58 139 304 64 vhcurveto
          66 312 -27 callsubr
          36 63 rmoveto
          -60 189 rlineto
          -21 hlineto
          -212 -189 rlineto
          44 hlineto
          157 80 60 -80 rlineto
          endchar
        </CharString>
        <CharString name="Udieresis">
          253 -7 98 732 122 hstem
          0 93 62 136 82 156 callgsubr
          vstem
          553 439 rmoveto
          -327 -72 -35 -21 -86 hhcurveto
          -51 -18 33 57 84 42 136 93 344 hvcurveto
          4 -21 -10 1 -17 hhcurveto
          -194 -184 -124 -141 -68 40 -24 67 hvcurveto
          9 -14 7 53 vvcurveto
          121 68 80 109 29 vhcurveto
          -33 -132 rlineto
          -43 -171 -39 -137 -100 vvcurveto
          -101 49 -58 144 225 58 139 304 64 vhcurveto
          66 312 -27 callsubr
          -125 136 rmoveto
          -107 callgsubr
          180 hmoveto
          -107 callgsubr
          endchar
        </CharString>
        <CharString name="Ugrave">
          253 -7 98 hstem
          0 93 62 136 vstem
          553 439 rmoveto
          -327 -72 -35 -21 -86 hhcurveto
          -51 -18 33 57 84 42 136 93 344 hvcurveto
          4 -21 -10 1 -17 hhcurveto
          -194 -184 -124 -141 -68 40 -24 67 hvcurveto
          9 -14 7 53 vvcurveto
          121 68 80 109 29 vhcurveto
          -33 -132 rlineto
          -43 -171 -39 -137 -100 vvcurveto
          -101 49 -58 144 225 58 139 304 64 vhcurveto
          66 312 -27 callsubr
          -76 63 -18 callgsubr
        </CharString>
        <CharString name="V">
          149 219 callgsubr
          157 145 vstem
          408 hmoveto
          278 745 rlineto
          -70 hlineto
          -210 -612 -9 615 rlineto
          -104 callgsubr
          111 56 76 93 35 vhcurveto
          16 -683 rlineto
          endchar
        </CharString>
        <CharString name="W">
          496 219 callgsubr
          157 145 203 144 vstem
          754 hmoveto
          278 745 rlineto
          -70 hlineto
          -210 -612 -9 612 rlineto
          -127 hlineto
          -210 -612 -9 615 rlineto
          -104 callgsubr
          111 56 76 93 35 vhcurveto
          16 -683 rlineto
          144 hlineto
          190 509 12 -509 rlineto
          endchar
        </CharString>
        <CharString name="X">
          11 callgsubr
        </CharString>
        <CharString name="Y">
          154 219 callgsubr
          vstem
          -28 callgsubr
          endchar
        </CharString>
        <CharString name="Yacute">
          154 0 1000 hstem
          6 93 vstem
          -28 callgsubr
          250 811 -98 callgsubr
          endchar
        </CharString>
        <CharString name="Ydieresis">
          154 0 945 -122 122 hstemhm
          6 93 280 59 121 122 169 callgsubr
          -28 callgsubr
          hintmask 01111000
          223 884 rmoveto
          -107 callgsubr
          180 hmoveto
          -107 callgsubr
          endchar
        </CharString>
        <CharString name="Z">
          76 0 63 635 52 hstemhm
          11 541 -466 110 193 111 hintmask 00000000
          hintmask 11100000
          372 hmoveto
          hintmask 11011000
          -74 callgsubr
          endchar
        </CharString>
        <CharString name="Zacute">
          76 0 63 635 52 hstem
          86 110 258 46 vstem
          372 hmoveto
          -74 callgsubr
          427 811 -98 callgsubr
          endchar
        </CharString>
        <CharString name="Zcaron">
          76 0 63 635 52 hstem
          86 110 200 104 vstem
          372 hmoveto
          -74 callgsubr
          586 1000 rmoveto
          -44 hlineto
          -157 -80 -60 80 rlineto
          -32 hlineto
          60 -189 rlineto
          21 hlineto
          endchar
        </CharString>
        <CharString name="Zdotaccent">
          64 0 63 635 52 73 122 hstemhm
          86 110 103 122 -32 111 218 callgsubr
          421 884 rmoveto
          -107 callgsubr
          -49 -884 rmoveto
          hintmask 11010100
          -74 callgsubr
          endchar
        </CharString>
        <CharString name="a">
          209 callsubr
          106 callsubr
          169 callgsubr
          526 -3 callsubr
          -43 -39 hhcurveto
          -27 -14 14 29 10 1 -63 callsubr
          hvcurveto
          72 340 rlineto
          -92 callsubr
          vhcurveto
          hintmask 01110000
          38 callgsubr
          hintmask 10110000
          -60 7 35 -32 56 hhcurveto
          38 callsubr
          -300 hmoveto
          hintmask 01110000
          -44 callgsubr
        </CharString>
        <CharString name="a.end">
          1 235 callgsubr
          480 -82 callsubr
          -140 19 rmoveto
          -44 callgsubr
        </CharString>
        <CharString name="a_x">
          433 60 callgsubr
          899 -56 callgsubr
          -90 callgsubr
          50 rlineto
          62 callgsubr
          hintmask 10111000
          -64 callgsubr
          hintmask 11011000
          8 callsubr
          47 47 47 31 vhcurveto
          -60 11 47 -34 56 hhcurveto
          81 78 38 96 76 hvcurveto
          -95 23 30 -39 63 hhcurveto
          54 96 -57 callsubr
          -673 hmoveto
          -44 callgsubr
        </CharString>
        <CharString name="a_x.end">
          418 60 callgsubr
          741 229 rmoveto
          62 callgsubr
          hintmask 10111000
          -64 callgsubr
          hintmask 11011000
          8 callsubr
          47 47 47 31 vhcurveto
          -60 11 47 -34 56 hhcurveto
          81 78 38 96 76 hvcurveto
          -95 23 30 -39 63 30 callsubr
          -44 -8 28 60 -11 hvcurveto
          -482 hmoveto
          -44 callgsubr
        </CharString>
        <CharString name="a_z">
          440 -6 97 -91 71 20 64 288 62 -59 54 106 callsubr
          398 100 132 100 hintmask 00000000
          hintmask 10010111
          480 500 rmoveto
          -26 callsubr
          71 48 47 46 30 vhcurveto
          -59 8 35 -34 55 hhcurveto
          53 20 32 69 27 hvcurveto
          hintmask 01001111
          -3 -6 -7 -1 -9 hhcurveto
          -28 -13 9 28 10 1 -63 callsubr
          hvcurveto
          -140 19 rmoveto
          hintmask 10010111
          -92 callgsubr
          hintmask 01101111
          427 -405 rmoveto
          -105 callsubr
          endchar
        </CharString>
        <CharString name="aacute">
          209 callsubr
          106 callsubr
          169 callgsubr
          526 -3 callsubr
          -43 -39 hhcurveto
          -27 -14 14 29 10 1 -63 callsubr
          hvcurveto
          72 340 rlineto
          -92 callsubr
          vhcurveto
          hintmask 01110000
          38 callgsubr
          hintmask 10110000
          -60 7 35 -32 56 hhcurveto
          38 callsubr
          -300 hmoveto
          hintmask 01110000
          -92 callgsubr
          4 156 -98 callgsubr
          endchar
        </CharString>
        <CharString name="aacute.end">
          -5 -6 97 352 62 hstem
          -19 148 vstem
          474 -82 callsubr
          -140 19 rmoveto
          -92 callgsubr
          13 156 -98 callgsubr
          endchar
        </CharString>
        <CharString name="acircumflex">
          209 callsubr
          106 callsubr
          169 callgsubr
          526 -3 callsubr
          -43 -39 hhcurveto
          -27 -14 14 29 10 1 -63 callsubr
          hvcurveto
          72 340 rlineto
          -92 callsubr
          vhcurveto
          hintmask 01110000
          38 callgsubr
          hintmask 10110000
          -60 7 35 -32 56 hhcurveto
          38 callsubr
          -300 hmoveto
          hintmask 01110000
          -92 callgsubr
          123 156 rmoveto
          -60 189 rlineto
          -21 hlineto
          -212 -189 rlineto
          44 hlineto
          157 80 60 -80 rlineto
          endchar
        </CharString>
        <CharString name="acute">
          -150 183 callsubr
          120 196 vstem
          195 98 callgsubr
          endchar
        </CharString>
        <CharString name="adieresis">
          209 callsubr
          68 122 106 callsubr
          45 154 callsubr
          hintmask 10101110
          526 -3 callsubr
          -43 -39 hhcurveto
          -27 -14 14 29 10 1 -63 callsubr
          hvcurveto
          72 340 rlineto
          -92 callsubr
          vhcurveto
          hintmask 01101110
          38 callgsubr
          hintmask 10101110
          -60 7 35 -32 56 hhcurveto
          38 callsubr
          -300 hmoveto
          hintmask 01111110
          -92 callgsubr
          -75 168 rmoveto
          33 28 26 35 33 -28 28 -33 -35 -26 -28 -33 -35 26 -26 35 hvcurveto
          241 61 rmoveto
          -107 callgsubr
          endchar
        </CharString>
        <CharString name="ae">
          184 -6 97 -95 82 151 61 155 60 -49 53 hstemhm
          -8 141 423 77 hintmask 00000000
          hintmask 01110010
          650 127 callsubr
          hintmask 01101010
          53 -20 46 -89 -55 -44 -17 -27 -36 vhcurveto
          hintmask 10110110
          28 -35 -44 12 -51 hhcurveto
          -56 -51 -3 -75 -75 hvcurveto
          28 -29 rlineto
          27 29 32 20 60 hhcurveto
          43 18 -31 -40 -28 -8 -32 -13 -28 hvcurveto
          3 -12 -16 1 -24 hhcurveto
          -125 -97 -42 -124 -106 68 -24 59 79 36 45 51 27 hvcurveto
          hintmask 01101010
          -68 19 55 -26 73 hhcurveto
          135 86 93 90 55 hvcurveto
          -274 71 108 callgsubr
          -151 -22 rmoveto
          hintmask 10110110
          -109 -21 -25 -28 -34 hhcurveto
          -12 -34 5 45 53 44 35 65 hvcurveto
          hintmask 01101010
          7 3 0 -1 7 hvcurveto
          endchar
        </CharString>
        <CharString name="afii10017">
          178 399 59 hstem
          65 120 vstem
          516 -103 callsubr
          -77 -363 rcurveline
          86 -35 callsubr
          endchar
        </CharString>
        <CharString name="afii10018">
          178 232 callsubr
          194 108 -70 82 hstemhm
          12 93 175 11 166 139 hintmask 00000000
          hintmask 11011110
          235 hmoveto
          79 367 rlineto
          7 15 16 3 17 hhcurveto
          73 22 -54 -69 -76 -26 -99 -73 -24 -22 9 27 -21 hvcurveto
          -69 -29 29 -63 91 hhcurveto
          152 62 169 99 107 -53 78 -116 -33 -30 -6 -12 -39 hvcurveto
          hintmask 11101110
          50 232 rlineto
          -11 53 59 -9 57 hhcurveto
          80 7 78 42 8 hvcurveto
          -9 -28 -31 -3 -31 hhcurveto
          hintmask 11011110
          -72 -84 27 callgsubr
        </CharString>
        <CharString name="afii10019">
          -46 callgsubr
        </CharString>
        <CharString name="afii10020">
          16 callsubr
          endchar
        </CharString>
        <CharString name="afii10021">
          203 -27 89 -75 88 100 36 493 46 hstemhm
          -25 55 -18 93 408 138 hintmask 00000000
          hintmask 01111010
          142 203 rmoveto
          5 -11 -12 3 -14 hhcurveto
          -69 -61 -50 -80 hvcurveto
          hintmask 10111010
          -65 58 -43 60 48 58 16 61 40 vhcurveto
          hintmask 01110110
          -48 44 48 -15 43 48 callgsubr
          -19 -21 5 16 -19 vhcurveto
          5 15 4 15 4 17 109 513 rcurveline
          -148 -20 -90 -413 rlineto
          -17 -83 rmoveto
          hintmask 10111010
          -60 -12 -27 -18 -20 hhcurveto
          -23 -17 13 20 45 38 35 36 9 10 -3 -7 11 hvcurveto
          endchar
        </CharString>
        <CharString name="afii10022">
          195 callsubr
          hstem
          119 callsubr
          vstem
          461 180 rmoveto
          -67 -37 -87 -35 -61 hhcurveto
          -68 -27 45 56 -101 callgsubr
          -93 55 -83 129 121 119 71 117 53 vhcurveto
          endchar
        </CharString>
        <CharString name="afii10022_afii10073">
          474 -250 78 154 96 199 callgsubr
          184 59 hstemhm
          119 callsubr
          5 213 callgsubr
          -6 callsubr
          hintmask 1111110110000000
          24 callgsubr
          hintmask 1111111110000000
          0 callsubr
          hintmask 1111110110000000
          63 callsubr
          endchar
        </CharString>
        <CharString name="afii10022_afii10087">
          331 -16 93 -83 171 callsubr
          137 59 hstemhm
          119 callsubr
          230 59 hintmask 00000000
          hintmask 10111110
          797 -56 callgsubr
          hintmask 01111110
          -90 callgsubr
          50 rlineto
          62 callgsubr
          -106 callgsubr
          -36 -35 -59 -60 -64 vhcurveto
          -32 178 -27 callsubr
          50 -274 rlineto
          hintmask 10111110
          -66 -58 -91 -45 -73 hhcurveto
          -59 -43 30 72 -101 callgsubr
          -125 86 -49 104 112 137 57 85 72 vhcurveto
          hintmask 01111110
          -93 23 28 -39 64 hhcurveto
          54 96 -57 callsubr
          endchar
        </CharString>
        <CharString name="afii10023">
          -7 -18 96 615 130 callsubr
          122 hintmask 00000000
          hintmask 11110100
          461 180 rmoveto
          -67 -37 -87 -35 -61 hhcurveto
          -68 -27 45 56 -101 callgsubr
          -93 55 -83 129 121 119 71 117 53 vhcurveto
          hintmask 11101010
          -124 714 rmoveto
          -107 callgsubr
          180 hmoveto
          -107 callgsubr
          endchar
        </CharString>
        <CharString name="afii10023_afii10073">
          474 -250 78 154 96 199 callgsubr
          184 130 callsubr
          135 -55 42 177 151 -6 callsubr
          hintmask 1111111000110000
          24 callgsubr
          hintmask 1111111010110000
          0 callsubr
          hintmask 1111111000110000
          -94 callsubr
          hintmask 1111110101010000
          -330 -233 rmoveto
          -63 -8 -28 -55 -29 hhcurveto
          -23 -11 14 19 40 47 27 52 18 hvcurveto
          -292 938 rmoveto
          -107 callgsubr
          hintmask 1111111000110000
          180 hmoveto
          33 -28 28 -33 vhcurveto
          hintmask 1111111001010000
          -35 -26 -28 -33 -35 26 -26 35 hvcurveto
          hintmask 1111111000110000
          33 28 26 35 hvcurveto
          endchar
        </CharString>
        <CharString name="afii10023_afii10087">
          331 -16 93 -83 171 callsubr
          137 130 callsubr
          122 183 59 -6 callsubr
          hintmask 1011110101000000
          797 -56 callgsubr
          hintmask 0111110101000000
          -90 callgsubr
          50 rlineto
          62 callgsubr
          -106 callgsubr
          -36 -35 -59 -60 -64 vhcurveto
          -32 178 -27 callsubr
          50 -274 rlineto
          hintmask 1011110101000000
          -66 -58 -91 -45 -73 hhcurveto
          -59 -43 30 72 -101 callgsubr
          -125 86 -49 104 112 137 57 85 72 vhcurveto
          hintmask 0111101011000000
          -93 23 28 -39 64 hhcurveto
          54 96 -57 callsubr
          -479 705 rmoveto
          -107 callgsubr
          180 hmoveto
          -107 callgsubr
          endchar
        </CharString>
        <CharString name="afii10024">
          311 365 47 201 137 hstemhm
          261 60 190 138 -85 134 218 callgsubr
          391 hmoveto
          77 362 rlineto
          2 12 12 1 12 hhcurveto
          45 15 -28 -40 hvcurveto
          hintmask 11110000
          -69 -53 -111 29 callgsubr
          hintmask 11101000
          63 49 97 83 vvcurveto
          61 -27 46 -97 vhcurveto
          -14 hlineto
          41 109 29 82 73 46 rrcurveto
          -27 11 19 -13 29 hhcurveto
          31 34 18 52 44 -34 23 -41 -47 -55 -27 -60 -45 hvcurveto
          -34 -44 -49 -110 -21 -97 rrcurveto
          -7 -8 -1 -1 -8 hvcurveto
          72 338 -150 -31 -66 -307 rlineto
          1 -7 -6 1 -7 hhcurveto
          105 16 0 233 -142 hhcurveto
          -49 -47 -23 -53 -35 21 -26 32 31 22 13 27 14 hvcurveto
          49 -44 3 -85 -5 -108 rrcurveto
          -3 hlineto
          -55 -48 -11 -32 -32 hvcurveto
          -112 -100 67 -208 -122 -65 rrcurveto
          -15 44 36 -2 28 hhcurveto
          65 21 46 49 11 hvcurveto
          11 49 6 82 19 64 15 55 35 40 56 -3 rrcurveto
          7 8 0 -1 8 hvcurveto
          -77 -364 rlineto
          endchar
        </CharString>
        <CharString name="afii10025">
          59 -18 61 333 74 233 66 hstemhm
          -10 100 221 163 -129 150 hintmask 00000000
          hintmask 11111000
          196 376 rmoveto
          73 42 -34 -91 -102 -49 -106 -93 -53 -26 31 37 29 10 27 27 16 hvcurveto
          16 -11 -15 10 -29 hhcurveto
          -47 -35 -35 -55 -92 75 -45 112 184 113 126 149 84 -49 53 -80 23 hvcurveto
          hintmask 11110100
          93 31 57 62 81 vvcurveto
          96 -57 62 -124 -101 -93 -56 -115 -29 vhcurveto
          23 -10 rlineto
          80 41 52 35 60 hhcurveto
          51 27 -30 -48 -60 -47 -95 -92 hvcurveto
          -36 hlineto
          -16 -74 rlineto
          endchar
        </CharString>
        <CharString name="afii10026">
          239 241 callsubr
          12 93 vstem
          575 31 callgsubr
          -300 -532 113 532 rlineto
          -95 callsubr
          144 hlineto
          296 514 -109 -514 rlineto
          endchar
        </CharString>
        <CharString name="afii10027">
          239 800 53 hstem
          12 93 326 63 vstem
          575 31 callgsubr
          -300 -532 113 532 rlineto
          -95 callsubr
          144 hlineto
          296 514 -109 -514 rlineto
          233 970 rmoveto
          -25 callsubr
        </CharString>
        <CharString name="afii10028">
          -54 callsubr
          endchar
        </CharString>
        <CharString name="afii10029">
          83 -114 864 hstem
          -30 120 vstem
          421 hmoveto
          157 736 rlineto
          11 -24 -32 3 -23 hhcurveto
          -239 -290 -559 -199 -104 81 -2 53 hvcurveto
          -7 9 -7 15 32 vvcurveto
          187 179 470 152 80 vhcurveto
          -144 -679 rlineto
          endchar
        </CharString>
        <CharString name="afii10030">
          348 6 callsubr
        </CharString>
        <CharString name="afii10031">
          199 376 74 hstem
          12 93 vstem
          535 31 callgsubr
          -64 -298 rlineto
          -147 hlineto
          64 298 rlineto
          -95 callsubr
          144 hlineto
          80 376 rlineto
          147 hlineto
          -80 -376 rlineto
          endchar
        </CharString>
        <CharString name="afii10032">
          199 -97 callsubr
          endchar
        </CharString>
        <CharString name="afii10033">
          222 0 749 hstem
          12 93 vstem
          535 hmoveto
          133 619 78 1 40 43 2 83 rlinecurve
          -11 -27 -42 -10 -47 -133 -72 24 -114 hhcurveto
          -247 -94 -127 -133 -72 38 -25 69 hvcurveto
          8 -14 9 51 vvcurveto
          132 56 53 80 13 vhcurveto
          -141 -658 rlineto
          144 hlineto
          140 654 47 -7 47 -9 49 -7 rlinecurve
          -136 -631 rlineto
          endchar
        </CharString>
        <CharString name="afii10034">
          5 callsubr
        </CharString>
        <CharString name="afii10035">
          -91 callgsubr
          endchar
        </CharString>
        <CharString name="afii10035_afii10073">
          507 -250 78 156 96 20 189 callgsubr
          194 47 hstemhm
          122 callsubr
          -4 213 callgsubr
          -6 callsubr
          hintmask 1111110110000000
          973 -47 callgsubr
          -62 58 -96 -145 -40 -112 -129 -57 vhcurveto
          -131 -59 -56 -57 -81 215 callsubr
          hvcurveto
          hintmask 1111111010000000
          -88 callsubr
          -180 71 -66 148 119 119 104 172 64 hvcurveto
          118 46 44 40 59 hhcurveto
          51 10 -47 -39 113 callsubr
          hvcurveto
          -12 callsubr
          31 hlineto
          46 24 -35 -71 2 hvcurveto
          hintmask 1111110110000000
          63 callsubr
          endchar
        </CharString>
        <CharString name="afii10035_afii10087">
          348 -16 96 -86 171 callsubr
          147 47 hstemhm
          122 callsubr
          205 59 hintmask 00000000
          hintmask 01111110
          814 -56 callgsubr
          -90 callgsubr
          50 rlineto
          62 callgsubr
          -106 callgsubr
          -36 -35 -59 -60 -64 vhcurveto
          -32 178 -27 callsubr
          50 -273 rlineto
          hintmask 10111110
          -61 -53 -80 -48 -84 215 callsubr
          -88 callsubr
          -180 69 -66 140 73 145 38 105 89 hvcurveto
          hintmask 01111110
          -95 23 28 -38 64 hhcurveto
          54 96 -57 callsubr
          endchar
        </CharString>
        <CharString name="afii10036">
          10 callsubr
        </CharString>
        <CharString name="afii10037">
          178 -5 144 -144 755 hstemhm
          12 93 105 callgsubr
          214 callsubr
          hintmask 10100000
          25 callsubr
          endchar
        </CharString>
        <CharString name="afii10038">
          320 103 47 618 41 hstemhm
          19 138 -37 93 411 132 hintmask 00000000
          hintmask 11011000
          381 hmoveto
          22 103 rlineto
          24 hlineto
          199 130 138 163 110 -80 89 -164 16 hvcurveto
          38 175 rlineto
          11 -51 -51 4 -57 hhcurveto
          -137 -131 -37 -79 -3 hvcurveto
          -53 47 -18 54 5 vhcurveto
          -5 15 -3 14 14 vvcurveto
          63 59 26 129 9 vhcurveto
          -32 -150 rlineto
          hintmask 11101000
          -189 -19 -161 -84 -195 vvcurveto
          -111 67 -103 173 -3 vhcurveto
          -22 -103 rlineto
          176 150 rmoveto
          89 419 rlineto
          80 -16 42 -50 -92 vvcurveto
          -123 -80 -138 -125 vhcurveto
          -150 hmoveto
          -70 5 -42 72 79 vvcurveto
          160 68 80 133 23 vhcurveto
          endchar
        </CharString>
        <CharString name="afii10039">
          11 callgsubr
        </CharString>
        <CharString name="afii10040">
          226 -168 127 -117 -21 179 73 hstemhm
          12 93 hintmask 00000000
          hintmask 01110000
          399 42 rmoveto
          17 -43 -44 14 -43 hhcurveto
          -9 hlineto
          143 675 rlineto
          -104 callgsubr
          108 52 74 88 36 vhcurveto
          -145 -682 rlineto
          -1 -1 0 0 -1 vvcurveto
          -1 vlineto
          5 1 rlineto
          3 11 26 2 49 215 37 -168 144 hhcurveto
          84 33 48 96 9 hvcurveto
          hintmask 10110000
          -15 -27 -38 -2 -21 hhcurveto
          -31 -30 9 15 -35 hvcurveto
          164 765 rlineto
          -144 hlineto
          endchar
        </CharString>
        <CharString name="afii10041">
          229 294 78 hstem
          12 93 98 141 vstem
          565 31 callgsubr
          -73 -344 rlineto
          -19 -23 -29 -13 -36 hhcurveto
          -37 -38 17 56 21 6 36 8 39 hvcurveto
          45 207 rlineto
          41 callsubr
          -31 -139 rlineto
          -9 -41 -2 -36 -27 vvcurveto
          -100 62 -43 79 43 49 6 33 56 vhcurveto
          -71 -333 rlineto
          endchar
        </CharString>
        <CharString name="afii10042">
          440 0 74 hstem
          12 93 vstem
          776 31 callgsubr
          -144 -674 rlineto
          -127 hlineto
          144 674 rlineto
          -144 hlineto
          -144 -674 rlineto
          -117 hlineto
          144 674 rlineto
          -95 callsubr
          endchar
        </CharString>
        <CharString name="afii10043">
          468 -168 127 -117 -21 179 74 hstemhm
          12 93 hintmask 00000000
          hintmask 01110000
          633 4 rmoveto
          -40 11 -41 10 -40 9 152 714 rcurveline
          -144 hlineto
          -146 -684 rlineto
          7 -33 -28 3 -20 -13 -10 -1 -11 hhcurveto
          144 675 rlineto
          1 -13 -13 1 -15 hhcurveto
          -165 -185 -124 -141 -68 40 -24 67 hvcurveto
          9 -14 7 53 vvcurveto
          107 52 75 88 36 vhcurveto
          90 callgsubr
          -1 -1 0 -1 -2 vvcurveto
          -2 vlineto
          4 1 rlineto
          3 11 25 2 51 215 281 -168 144 hhcurveto
          81 34 48 96 9 hvcurveto
          hintmask 10110000
          -13 -23 -29 -4 -35 hhcurveto
          -23 -33 6 8 -41 hvcurveto
          165 775 rlineto
          -144 hlineto
          endchar
        </CharString>
        <CharString name="afii10044">
          248 232 callsubr
          226 87 hstem
          12 94 257 11 166 139 vstem
          317 hmoveto
          79 -62 callsubr
          -5 -13 -39 hvcurveto
          70 323 rlineto
          5 -31 -35 3 -48 hhcurveto
          -237 -114 -137 -123 -82 63 -30 69 13 hvcurveto
          -54 81 9 100 42 48 rrcurveto
          39 35 57 4 56 9 8 -1 9 hhcurveto
          -142 -661 rlineto
          endchar
        </CharString>
        <CharString name="afii10045">
          443 -20 callgsubr
          679 31 callgsubr
          -159 -748 rlineto
          endchar
        </CharString>
        <CharString name="afii10046">
          174 -20 callgsubr
          endchar
        </CharString>
        <CharString name="afii10047">
          78 -16 47 345 74 214 86 hstem
          -11 91 289 166 vstem
          358 376 rmoveto
          -173 -29 -89 -172 -94 hhcurveto
          -48 -18 29 32 39 17 41 19 12 hvcurveto
          23 -19 -22 3 -16 hhcurveto
          -51 -19 -39 -53 -96 75 -38 97 282 92 339 181 180 -71 66 -148 -91 -110 -52 -134 -54 hvcurveto
          23 -10 rlineto
          67 46 41 43 78 hhcurveto
          95 25 -67 -99 -16 -1 -16 -1 -16 hvcurveto
          -205 hlineto
          -16 -74 rlineto
          endchar
        </CharString>
        <CharString name="afii10048">
          480 -6 81 301 74 244 56 hstemhm
          12 93 284 148 -15 4 278 133 hintmask 00000000
          hintmask 11110110
          244 hmoveto
          80 376 rlineto
          hintmask 11111010
          91 hlineto
          -17 -65 -9 -65 -51 vvcurveto
          -146 74 -55 105 262 107 307 193 171 -76 85 -171 vhcurveto
          hintmask 11110110
          -104 -81 -57 -63 21 hvcurveto
          39 24 49 25 67 hhcurveto
          104 34 -69 -106 -202 -108 -242 -101 hvcurveto
          hintmask 11111010
          -41 -17 48 68 154 80 246 91 55 hvcurveto
          7 -19 -16 1 -17 hhcurveto
          -101 -72 -95 -109 -43 hvcurveto
          -101 hlineto
          64 298 rlineto
          -95 callsubr
          endchar
        </CharString>
        <CharString name="afii10049">
          164 334 43 323 50 hstem
          111 105 384 92 vstem
          392 hmoveto
          140 656 -148 -20 -56 -259 rlineto
          -1 hlineto
          -49 -62 41 96 100 77 86 148 105 54 -39 -100 -41 -10 -18 -3 -9 hvcurveto
          67 38 25 72 96 -109 64 -140 -216 -116 -112 -125 -63 22 -49 56 -31 hvcurveto
          -76 -13 -38 -40 -20 -96 -23 -110 rcurveline
          -12 -56 -18 -30 -48 -25 rrcurveto
          -15 44 39 -2 25 hhcurveto
          64 18 46 49 11 hvcurveto
          16 70 11 111 40 38 23 21 21 13 53 3 -71 -334 rcurveline
          endchar
        </CharString>
        <CharString name="afii10050">
          -35 630 109 -71 82 hstemhm
          12 93 105 callgsubr
          235 hmoveto
          hintmask 10100000
          139 650 rlineto
          -11 48 46 -9 39 hhcurveto
          85 54 52 84 40 -16 40 -28 24 hvcurveto
          -71 -13 -10 -60 -85 hhcurveto
          hintmask 01100000
          -32 -61 11 -42 hhcurveto
          -260 -87 -127 -133 -72 38 -25 69 hvcurveto
          8 -14 9 51 vvcurveto
          160 50 44 80 155 callsubr
          endchar
        </CharString>
        <CharString name="afii10051">
          259 -207 96 487 78 166 106 -64 87 hstemhm
          12 93 163 10 236 212 callsubr
          hintmask 11011110
          181 callsubr
          -45 -14 -79 -11 -39 hvcurveto
          -176 -43 -45 -78 -71 hhcurveto
          -19 -17 5 17 -16 hvcurveto
          -56 -27 27 -62 84 hhcurveto
          134 90 167 181 43 hvcurveto
          13 56 13 61 53 vvcurveto
          100 -57 43 -67 -32 -52 -6 -32 -51 vhcurveto
          hintmask 11101110
          49 226 52 callgsubr
          hintmask 11011110
          -22 callgsubr
        </CharString>
        <CharString name="afii10052">
          16 callsubr
          352 811 -98 callgsubr
          endchar
        </CharString>
        <CharString name="afii10053">
          31 -16 96 296 74 253 47 hstem
          122 callsubr
          vstem
          500 180 rmoveto
          -63 -47 -69 -37 -79 hhcurveto
          -97 -23 64 92 45 5 48 8 47 hvcurveto
          -14 callgsubr
          71 -66 148 92 139 52 134 54 hvcurveto
          endchar
        </CharString>
        <CharString name="afii10053_afii10073">
          507 -250 78 156 96 20 60 216 74 -32 91 194 47 hstemhm
          122 callsubr
          -4 213 callgsubr
          -6 callsubr
          hintmask 1111010011000000
          973 -56 callgsubr
          -32 -96 -41 -33 -72 -21 -13 53 -38 36 -31 11 rrcurveto
          -72 callsubr
          hintmask 1110111011000000
          -4 callgsubr
          -131 -59 -56 -57 -81 hhcurveto
          -97 -23 64 92 hvcurveto
          hintmask 1111011101000000
          45 5 48 8 47 vhcurveto
          -14 callgsubr
          71 -66 148 119 119 104 172 64 hvcurveto
          hintmask 1110110011000000
          118 46 44 40 59 hhcurveto
          51 10 -47 -39 -95 -51 -77 -72 hvcurveto
          -29 hlineto
          -13 -60 rlineto
          31 hlineto
          46 24 -35 -71 2 hvcurveto
          63 callsubr
          endchar
        </CharString>
        <CharString name="afii10053_afii10087">
          348 -16 96 -86 97 285 74 3 103 147 47 hstemhm
          122 callsubr
          205 59 hintmask 00000000
          hintmask 01101111
          814 -56 callgsubr
          -90 callgsubr
          50 rlineto
          62 callgsubr
          hintmask 10011111
          -106 callgsubr
          -36 -35 -59 -60 -64 vhcurveto
          -32 178 -27 callsubr
          50 -273 rlineto
          -61 -53 -80 -48 -84 hhcurveto
          -97 -23 64 92 hvcurveto
          hintmask 10101111
          45 5 48 8 47 vhcurveto
          -14 callgsubr
          69 -66 140 73 145 38 105 89 hvcurveto
          hintmask 01101111
          -95 23 28 -38 64 hhcurveto
          54 96 -57 callsubr
          endchar
        </CharString>
        <CharString name="afii10054">
          77 162 callsubr
          0 97 callgsubr
          389 -90 callsubr
          endchar
        </CharString>
        <CharString name="afii10055">
          -92 241 callsubr
          12 93 vstem
          244 hmoveto
          138 callgsubr
          -104 callgsubr
          108 52 74 88 36 vhcurveto
          -145 -679 rlineto
          endchar
        </CharString>
        <CharString name="afii10056">
          -92 0 945 -122 122 hstemhm
          12 93 89 50 130 122 169 callgsubr
          244 hmoveto
          138 callgsubr
          -104 callgsubr
          108 52 74 88 36 vhcurveto
          -145 -679 rlineto
          hintmask 01111000
          396 884 rmoveto
          -107 callgsubr
          -180 hmoveto
          -107 callgsubr
          endchar
        </CharString>
        <CharString name="afii10057">
          -14 -207 50 144 81 hstem
          -80 84 86 93 vstem
          167 -34 rmoveto
          -104 -24 -26 -19 -45 hhcurveto
          -29 -39 18 52 37 23 37 47 20 15 -5 -21 25 hvcurveto
          4 15 2 13 12 vvcurveto
          64 -58 3 -40 -79 -43 -66 -68 -84 52 -57 96 164 67 94 153 32 vhcurveto
          150 710 rlineto
          -40 hlineto
          93 callgsubr
          53 75 88 36 vhcurveto
          endchar
        </CharString>
        <CharString name="afii10058">
          351 232 callsubr
          hstem
          -30 120 376 11 166 139 vstem
          421 hmoveto
          7 callgsubr
          -5 -13 -39 hvcurveto
          68 318 rlineto
          11 -24 -32 3 -23 hhcurveto
          -239 -290 -559 -199 -104 81 -2 53 hvcurveto
          -7 9 -7 15 32 vvcurveto
          187 179 470 152 80 vhcurveto
          -144 -679 rlineto
          endchar
        </CharString>
        <CharString name="afii10059">
          465 -17 96 297 74 -73 59 hstemhm
          12 93 475 11 166 139 hintmask 00000000
          hintmask 11011100
          535 hmoveto
          hintmask 10111100
          7 callgsubr
          -6 -12 -39 hvcurveto
          70 330 rlineto
          -144 hlineto
          hintmask 11011100
          -64 -298 rlineto
          -147 hlineto
          64 298 rlineto
          -95 callsubr
          144 hlineto
          80 376 rlineto
          147 hlineto
          -80 -376 rlineto
          endchar
        </CharString>
        <CharString name="afii10060">
          279 376 78 166 106 -64 87 hstemhm
          12 93 409 212 callsubr
          hintmask 10111000
          181 callsubr
          -21 -7 -47 -7 -31 hvcurveto
          -17 -72 -12 -50 -35 vvcurveto
          -32 13 -35 65 24 38 5 12 43 vhcurveto
          -24 9 -15 26 31 vvcurveto
          32 11 42 16 67 vhcurveto
          11 41 2 36 27 vvcurveto
          100 -56 43 -66 -32 -54 -6 -32 -51 vhcurveto
          hintmask 11011000
          49 226 52 callgsubr
          hintmask 10111000
          -22 callgsubr
        </CharString>
        <CharString name="afii10061">
          -54 callsubr
          397 811 -98 callgsubr
          endchar
        </CharString>
        <CharString name="afii10062">
          178 -5 144 661 53 hstem
          12 93 266 129 vstem
          214 callsubr
          25 callsubr
          416 287 rmoveto
          -25 callsubr
        </CharString>
        <CharString name="afii10065">
          209 callsubr
          106 callsubr
          169 callgsubr
          526 -3 callsubr
          -43 -39 hhcurveto
          -27 -14 14 29 10 1 -63 callsubr
          hvcurveto
          72 340 rlineto
          -92 callsubr
          vhcurveto
          hintmask 01110000
          38 callgsubr
          hintmask 10110000
          -60 7 35 -32 56 hhcurveto
          38 callsubr
          -300 hmoveto
          hintmask 01110000
          -44 callgsubr
        </CharString>
        <CharString name="afii10065.end">
          1 235 callgsubr
          480 -82 callsubr
          -140 19 rmoveto
          -44 callgsubr
        </CharString>
        <CharString name="afii10065_afii10087">
          433 60 callgsubr
          899 -56 callgsubr
          -90 callgsubr
          50 rlineto
          62 callgsubr
          hintmask 10111000
          -64 callgsubr
          hintmask 11011000
          8 callsubr
          47 47 47 31 vhcurveto
          -60 11 47 -34 56 hhcurveto
          81 78 38 96 76 hvcurveto
          -95 23 30 -39 63 hhcurveto
          54 96 -57 callsubr
          -673 hmoveto
          -44 callgsubr
        </CharString>
        <CharString name="afii10065_afii10087.liga">
          418 60 callgsubr
          268 -56 callgsubr
          -92 callgsubr
          425 -176 rmoveto
          62 callgsubr
          hintmask 10111000
          -64 callgsubr
          hintmask 11011000
          8 callsubr
          47 47 47 31 vhcurveto
          -60 11 47 -34 56 hhcurveto
          81 77 39 96 76 hvcurveto
          -95 23 35 -40 52 hhcurveto
          55 58 31 72 5 hvcurveto
          -4 -11 -7 -2 -19 hhcurveto
          -35 -10 22 65 -13 hvcurveto
          endchar
        </CharString>
        <CharString name="afii10065_afii10089">
          527 -6 97 57 97 198 62 hstem
          -13 148 vstem
          480 -82 callsubr
          585 19 rmoveto
          -51 -15 -27 -37 -39 hhcurveto
          -28 -13 9 28 10 1 -63 callsubr
          hvcurveto
          72 340 rlineto
          -144 hlineto
          -35 -167 rlineto
          -52 -11 -30 -36 -67 callsubr
          18 -72 callgsubr
          2 10 hvcurveto
          39 186 rlineto
          -144 hlineto
          -35 -167 rlineto
          -59 callgsubr
          -52 callgsubr
          vhcurveto
          -93 callgsubr
          -767 hmoveto
          -44 callgsubr
        </CharString>
        <CharString name="afii10065_afii10089.liga">
          481 -6 103 51 97 198 62 hstem
          -13 148 vstem
          480 -82 callsubr
          327 19 rmoveto
          -59 callgsubr
          176 callsubr
          -3 -7 -6 -3 -19 hhcurveto
          -28 -13 9 28 10 1 -63 callsubr
          hvcurveto
          72 340 rlineto
          -144 hlineto
          -35 -167 rlineto
          -52 -11 -30 -36 -67 callsubr
          18 -72 callgsubr
          2 10 hvcurveto
          39 186 rlineto
          -144 hlineto
          -35 -167 rlineto
          -59 callgsubr
          -52 callgsubr
          vhcurveto
          -472 -25 rmoveto
          -44 callgsubr
        </CharString>
        <CharString name="afii10066">
          -36 -4 161 callsubr
          172 83 vstem
          391 582 rmoveto
          104 33 29 153 32 hvcurveto
          -44 hlineto
          -53 -13 -15 5 -73 hhcurveto
          -152 -102 callgsubr
          endchar
        </CharString>
        <CharString name="afii10066_afii10068">
          -76 callgsubr
          endchar
        </CharString>
        <CharString name="afii10066_afii10071">
          348 -6 84 -82 184 callsubr
          -17 53 64 122 -113 44 callgsubr
          29 50 callsubr
          -6 callsubr
          hintmask 0101010100100000
          361 -40 callsubr
          -122 95 callsubr
          hvcurveto
          hintmask 0110011100000000
          3 callgsubr
          153 88 183 146 hvcurveto
          145 -106 83 17 vvcurveto
          11 6 1 7 vhcurveto
          519 -403 rmoveto
          hintmask 1001000010100000
          150 callgsubr
          -48 -24 16 68 12 1 13 1 15 149 callsubr
          79 callsubr
          132 87 92 93 56 vhcurveto
          hintmask 0110001100100000
          -663 -93 rmoveto
          -37 -15 15 59 52 38 200 96 25 13 -13 -53 -49 -29 -211 -91 hvcurveto
          390 164 rmoveto
          hintmask 0001000000100000
          102 callsubr
          hintmask 0110001100100000
          233 callsubr
          vhcurveto
          hintmask 0000100001010000
          78 callgsubr
          endchar
        </CharString>
        <CharString name="afii10066_afii10071.liga">
          280 -6 95 -93 184 callsubr
          -17 53 64 122 -113 44 callgsubr
          30 148 -17 122 50 77 -69 122 -6 callsubr
          hintmask 0101010100100000
          361 -40 callsubr
          -122 95 callsubr
          hvcurveto
          hintmask 0110011100000000
          3 callgsubr
          153 88 183 146 hvcurveto
          145 -106 83 17 vvcurveto
          11 6 1 7 vhcurveto
          -110 -496 rmoveto
          -37 -15 15 59 52 38 200 96 25 13 -13 -53 -49 -29 -211 -91 hvcurveto
          hintmask 1000100001010000
          666 548 rmoveto
          -107 callgsubr
          -180 hmoveto
          -107 callgsubr
          75 -492 rmoveto
          -28 -32 -47 -25 -39 hhcurveto
          hintmask 1001000010100000
          -35 -27 19 64 9 1 -68 callgsubr
          149 callsubr
          50 -21 46 -89 -205 -65 -241 -115 -113 62 -46 93 vhcurveto
          hintmask 1000100001010000
          137 callgsubr
          hvcurveto
          hintmask 0001000000100000
          -171 108 rmoveto
          95 21 50 111 50 hhcurveto
          19 6 -16 -25 -83 -69 -79 -77 -3 hvcurveto
          endchar
        </CharString>
        <CharString name="afii10066_afii10072">
          795 114 callgsubr
          226 122 131 76 hintmask 0000000000000000
          hintmask 0011001111111000
          1261 -56 callgsubr
          -76 -25 -46 -35 -47 -41 callgsubr
          146 callgsubr
          hvcurveto
          -3 callgsubr
          hvcurveto
          hintmask 0011100111111000
          204 callgsubr
          -109 -64 -103 -106 -32 vhcurveto
          -27 callgsubr
          18 1 17 15 vvcurveto
          hintmask 0011010111111000
          97 -54 62 -92 -90 -56 -70 -82 -43 vhcurveto
          -13 119 -91 80 14 vvcurveto
          11 6 1 7 vhcurveto
          96 hlineto
          104 33 29 153 32 hvcurveto
          -44 hlineto
          -53 -13 -15 5 -73 hhcurveto
          -152 -15 callgsubr
          134 hlineto
          171 callgsubr
          57 hlineto
          -7 -31 -1 -29 -27 vvcurveto
          hintmask 0101100111111000
          148 callgsubr
          -1118 -93 rmoveto
          -37 -15 15 59 52 38 200 96 25 13 -13 -53 -49 -29 -211 -91 hvcurveto
          endchar
        </CharString>
        <CharString name="afii10066_afii10072.liga">
          792 114 callgsubr
          227 122 131 76 -6 callsubr
          hintmask 0101100111111000
          185 86 rmoveto
          -37 -15 15 59 52 38 200 96 25 13 -13 -53 -49 -29 -211 -91 hvcurveto
          663 -86 rmoveto
          51 240 rlineto
          57 hlineto
          -7 -31 -1 -29 -27 vvcurveto
          104 callgsubr
          hintmask 0011001111111000
          139 callsubr
          -3 callgsubr
          hvcurveto
          hintmask 0011100111111000
          204 callgsubr
          -109 -64 -103 -106 -32 vhcurveto
          -56 hlineto
          41 200 rlineto
          -134 hlineto
          -42 -200 rlineto
          -60 hlineto
          2 18 1 17 15 vvcurveto
          hintmask 0011010111111000
          97 -54 62 -92 -90 -56 -70 -82 -43 vhcurveto
          -13 119 -91 80 14 vvcurveto
          11 6 1 7 vhcurveto
          96 hlineto
          1 callsubr
          -44 hlineto
          -47 -10 -15 -1 -50 hhcurveto
          -178 -15 callgsubr
          endchar
        </CharString>
        <CharString name="afii10066_afii10075">
          469 -6 173 callgsubr
          172 129 hintmask 00000000
          hintmask 01101110
          371 -40 callsubr
          -132 -102 callgsubr
          674 633 rmoveto
          hintmask 10110011
          -96 callsubr
          34 -540 rmoveto
          -51 -15 -27 -37 -39 hhcurveto
          -28 -13 9 28 10 1 -63 callsubr
          -107 callsubr
          57 hhcurveto
          38 callsubr
          endchar
        </CharString>
        <CharString name="afii10066_afii10075.liga">
          435 -6 173 callgsubr
          172 129 hintmask 00000000
          hintmask 01101110
          371 -40 callsubr
          -132 -102 callgsubr
          674 633 rmoveto
          hintmask 10110011
          -96 callsubr
          -224 -540 rmoveto
          -89 callgsubr
          endchar
        </CharString>
        <CharString name="afii10066_afii10095">
          394 230 callsubr
          112 61 -48 84 73 89 callsubr
          262 82 195 148 -6 callsubr
          hintmask 1011011110000000
          661 240 rmoveto
          -100 -22 -50 -93 -57 -29 callsubr
          209 80 241 110 hvcurveto
          hintmask 1010111110000000
          113 -64 51 -100 -140 -77 -96 -91 -51 vhcurveto
          5 134 -111 98 16 35 callgsubr
          hintmask 0111011110000000
          3 callgsubr
          85 68 56 76 39 hvcurveto
          hintmask 0110111110000000
          136 69 93 161 92 hhcurveto
          51 28 98 callsubr
          -352 -154 rmoveto
          -37 -15 15 59 hvcurveto
          hintmask 1011011110000000
          52 38 200 96 25 13 -13 -53 vhcurveto
          hintmask 0110111110000000
          -49 -29 -211 -91 vhcurveto
          endchar
        </CharString>
        <CharString name="afii10066_afii10100">
          -76 callgsubr
          484 475 -98 callgsubr
          endchar
        </CharString>
        <CharString name="afii10066_afii10103">
          231 -6 97 -95 90 326 61 109 44 callgsubr
          hintmask 00000000
          hintmask 01111100
          341 -40 callsubr
          -102 -102 callgsubr
          492 547 rmoveto
          -103 callgsubr
          20 -454 rmoveto
          hintmask 10111100
          -100 callgsubr
          endchar
        </CharString>
        <CharString name="afii10066_afii10103.liga">
          173 -6 97 -95 90 326 61 109 44 callgsubr
          hintmask 00000000
          hintmask 01111100
          341 -40 callsubr
          -102 -102 callgsubr
          492 547 rmoveto
          -103 callgsubr
          -247 -454 rmoveto
          -25 callgsubr
          -18 vvcurveto
          hintmask 10111100
          -84 -26 callgsubr
          176 callsubr
          -3 -7 -6 -3 -19 hhcurveto
          -28 -13 9 28 10 1 -63 callsubr
          hvcurveto
          72 340 rlineto
          -144 hlineto
          endchar
        </CharString>
        <CharString name="afii10066_afii10104">
          231 -6 178 callsubr
          100 122 -113 44 callgsubr
          98 122 28 122 -6 callsubr
          hintmask 0110111000000000
          323 -40 callsubr
          -84 -102 callgsubr
          512 93 rmoveto
          hintmask 1011011110000000
          -100 callgsubr
          -131 455 rmoveto
          -107 callgsubr
          150 hmoveto
          -107 callgsubr
          endchar
        </CharString>
        <CharString name="afii10066_afii10104.liga">
          172 -6 178 callsubr
          100 122 -113 44 callgsubr
          98 122 28 122 -6 callsubr
          hintmask 0110111000000000
          323 -40 callsubr
          -84 -102 callgsubr
          hintmask 1011011110000000
          423 548 rmoveto
          -107 callgsubr
          150 hmoveto
          -107 callgsubr
          -329 -455 rmoveto
          -59 callgsubr
          176 callsubr
          -3 -7 -6 -3 -19 hhcurveto
          -28 -13 9 28 10 1 -63 callsubr
          hvcurveto
          72 340 rlineto
          -144 hlineto
          endchar
        </CharString>
        <CharString name="afii10066_afii10105">
          203 -250 78 168 161 callsubr
          94 55 23 83 vstem
          341 -40 callsubr
          -102 95 callsubr
          96 callgsubr
          hvcurveto
          -5 -5 1 -7 hhcurveto
          -176 -97 -157 -151 -117 60 -52 100 153 88 183 146 hvcurveto
          145 -106 83 17 vvcurveto
          11 6 1 7 vhcurveto
          239 -590 -55 callgsubr
          -108 -504 -60 callsubr
          -334 166 rmoveto
          -37 -15 15 59 52 38 200 96 25 13 -13 -53 -49 -29 -211 -91 hvcurveto
          483 548 rmoveto
          -103 callgsubr
          -294 -717 -74 callsubr
        </CharString>
        <CharString name="afii10066_afii10105.liga">
          172 -250 89 157 161 callsubr
          88 55 29 83 vstem
          341 -40 callsubr
          -102 -102 callgsubr
          483 548 rmoveto
          -103 callgsubr
          -273 -626 rmoveto
          -96 -29 -78 -27 -94 70 callsubr
          65 88 27 143 29 vhcurveto
          175 callsubr
          -123 -583 rmoveto
          -60 -13 -25 -18 -21 49 callsubr
          55 48 28 64 21 hvcurveto
          endchar
        </CharString>
        <CharString name="afii10066_afii10110">
          450 -250 78 166 173 callgsubr
          86 66 -44 33 31 129 -6 callsubr
          hintmask 1011100110000000
          781 124 callgsubr
          hintmask 1101010110000000
          -47 -15 -26 -35 -37 -102 callsubr
          -52 callgsubr
          vhcurveto
          -12 -54 -60 callsubr
          -395 662 174 callgsubr
          hintmask 1011011101000000
          -44 hlineto
          -53 -13 -15 5 -73 hhcurveto
          -132 -102 callgsubr
          674 633 rmoveto
          hintmask 1011100101100000
          -96 callsubr
          -280 -802 -74 callsubr
        </CharString>
        <CharString name="afii10066_afii10110.liga">
          424 -250 89 155 173 callgsubr
          80 72 -44 27 37 129 -6 callsubr
          hintmask 1011010110000000
          371 238 callsubr
          hintmask 1011011101000000
          -44 hlineto
          -53 -13 -15 5 -73 hhcurveto
          -132 -102 callgsubr
          674 633 rmoveto
          hintmask 1101100110100000
          -96 callsubr
          -260 -711 -71 callgsubr
        </CharString>
        <CharString name="afii10067">
          -17 185 callgsubr
          hintmask 11101000
          545 170 callgsubr
          -78 -33 -62 hhcurveto
          -11 13 -12 10 -15 7 101 callgsubr
          -104 51 -76 115 vhcurveto
          hintmask 11110000
          75 callsubr
          19 -1 16 -4 15 hvcurveto
          71 12 62 30 36 39 rrcurveto
          -264 -99 76 callgsubr
          -34 callsubr
          hintmask 11101000
          -49 callsubr
          hintmask 11110000
          -31 21 -18 31 156 callsubr
          vhcurveto
          endchar
        </CharString>
        <CharString name="afii10067.end">
          -60 39 callgsubr
          60 -17 38 -49 27 hvcurveto
          -34 -93 76 callgsubr
          hintmask 11110000
          -34 callsubr
          hintmask 11001000
          -49 callsubr
          hintmask 11010000
          -31 21 -18 31 156 callsubr
          vhcurveto
          endchar
        </CharString>
        <CharString name="afii10067_afii10068">
          -78 callgsubr
          endchar
        </CharString>
        <CharString name="afii10067_afii10072">
          813 59 callsubr
          1279 -56 callgsubr
          -76 -25 -46 -35 -47 -41 callgsubr
          hvcurveto
          hintmask 0010100111010111
          146 callgsubr
          vhcurveto
          -65 callsubr
          134 hlineto
          171 callgsubr
          57 hlineto
          -7 -31 -1 -29 -27 vvcurveto
          hintmask 0100100111100111
          148 callgsubr
          -1031 102 76 callgsubr
          -34 callsubr
          hintmask 0011010111010111
          -49 callsubr
          hintmask 0010100111100111
          -31 21 -18 31 vhcurveto
          hintmask 0100100111100111
          188 callsubr
        </CharString>
        <CharString name="afii10067_afii10072.liga">
          809 59 callsubr
          866 hmoveto
          171 callgsubr
          57 hlineto
          -7 -31 -1 -29 -27 vvcurveto
          hintmask 0101010111010111
          104 callgsubr
          hintmask 0010100111010111
          139 callsubr
          -65 callsubr
          hintmask 0100100111100111
          -442 281 76 callgsubr
          -34 callsubr
          hintmask 0011010111010111
          -49 callsubr
          hintmask 0010100111100111
          -31 21 -18 31 vhcurveto
          hintmask 0100100111100111
          188 callsubr
        </CharString>
        <CharString name="afii10067_afii10073">
          358 -250 78 168 90 14 189 callgsubr
          164 10 callgsubr
          -24 213 callgsubr
          -6 callsubr
          hintmask 1011110101000000
          824 -56 callgsubr
          -32 -96 -41 -33 -72 -21 -13 53 -38 36 -31 11 rrcurveto
          -72 callsubr
          91 -47 68 -101 -115 -88 -109 -44 -52 vhcurveto
          -8 8 -8 6 -9 4 101 callgsubr
          vhcurveto
          hintmask 1111111001000000
          -104 51 -76 115 75 callsubr
          25 -5 23 -10 22 vhcurveto
          226 callgsubr
          hintmask 1011110011000000
          -105 -51 -77 -72 vhcurveto
          -85 callgsubr
          hintmask 1111111001000000
          -576 102 76 callgsubr
          -34 callsubr
          hintmask 1011110101000000
          -49 callsubr
          hintmask 1011111001000000
          -31 21 -18 31 vhcurveto
          hintmask 1111111001000000
          156 callsubr
          hvcurveto
          hintmask 1011110011000000
          246 -335 rmoveto
          -63 -8 -28 -55 -29 hhcurveto
          -23 -11 14 19 40 47 27 52 18 hvcurveto
          endchar
        </CharString>
        <CharString name="afii10067_afii10073.liga">
          286 -250 89 157 90 14 189 callgsubr
          164 10 callgsubr
          -30 50 callgsubr
          hintmask 1011100100000000
          467 100 rmoveto
          62 8 -67 -28 hvcurveto
          hintmask 1011100011000000
          -91 -24 -70 -41 -80 vvcurveto
          -71 53 -39 69 80 callgsubr
          -22 222 callgsubr
          hintmask 1111110100100000
          -72 callsubr
          91 -47 68 -101 -115 -88 -109 -44 -52 vhcurveto
          -8 8 -8 6 -9 4 101 callgsubr
          -104 51 -76 115 vhcurveto
          hintmask 1111101000100000
          75 callsubr
          25 -5 23 -10 22 hvcurveto
          226 callgsubr
          hintmask 1011101000100000
          -105 -51 -77 -72 vhcurveto
          -12 callsubr
          -146 181 76 callgsubr
          hintmask 1111111000000000
          -34 callsubr
          hintmask 1011100100000000
          -49 callsubr
          hintmask 1011101000000000
          -31 21 -18 31 vhcurveto
          hintmask 1011101000100000
          156 callsubr
          hvcurveto
          hintmask 1011100011000000
          246 -306 -77 callsubr
        </CharString>
        <CharString name="afii10067_afii10087">
          385 -6 97 -95 90 337 82 -53 105 116 10 callgsubr
          376 60 -6 callsubr
          hintmask 0110110110000000
          851 -56 callgsubr
          hintmask 1001110110000000
          -51 -15 -36 -37 -39 hhcurveto
          -35 -19 22 65 -8 hvcurveto
          -8 58 rlineto
          101 109 50 57 64 vvcurveto
          -35 callgsubr
          42 -51 60 hhcurveto
          58 93 30 155 53 hvcurveto
          -603 102 32 callgsubr
        </CharString>
        <CharString name="afii10067_afii10087.liga">
          376 -6 97 -95 90 337 82 -53 105 116 10 callgsubr
          376 60 -6 callsubr
          hintmask 0110110110000000
          697 242 rmoveto
          101 109 44 50 65 vvcurveto
          hintmask 0101110110000000
          -35 callgsubr
          38 -51 47 callsubr
          -418 103 32 callgsubr
        </CharString>
        <CharString name="afii10067_afii10100">
          -78 callgsubr
          392 280 -98 callgsubr
          endchar
        </CharString>
        <CharString name="afii10068">
          -7 callsubr
          endchar
        </CharString>
        <CharString name="afii10068_afii10073">
          374 226 callsubr
          hstem
          -21 146 callsubr
          56 213 callgsubr
          vstem
          840 -47 callgsubr
          -56 58 -85 -154 -46 -135 -139 -72 vhcurveto
          -85 -43 -45 -72 -75 hhcurveto
          -32 -29 -98 callsubr
          61 -34 84 147 58 100 124 64 vhcurveto
          131 67 38 69 63 hhcurveto
          45 11 -47 -39 -95 -51 -77 -72 hvcurveto
          -29 hlineto
          -13 -60 rlineto
          31 hlineto
          46 24 -35 -71 2 hvcurveto
          63 callsubr
          endchar
        </CharString>
        <CharString name="afii10068_afii10073.liga">
          302 56 callgsubr
          196 callgsubr
          hstemhm
          -21 146 callsubr
          50 50 callgsubr
          hintmask 1111001100000000
          483 -70 callgsubr
          hintmask 1111111010000000
          193 callgsubr
          -56 58 -85 -154 -46 -135 -139 -72 vhcurveto
          -85 -43 -45 -72 -75 hhcurveto
          -32 -29 -98 callsubr
          61 -34 84 147 58 100 124 64 vhcurveto
          131 67 38 69 63 hhcurveto
          45 11 -47 -39 113 callsubr
          hvcurveto
          -12 callsubr
          hintmask 1111001100000000
          100 -125 -77 callsubr
        </CharString>
        <CharString name="afii10068_afii10087">
          274 28 callgsubr
          740 -56 callgsubr
          hintmask 01010010
          -51 -15 -36 -37 -39 hhcurveto
          -44 -7 51 37 -8 hvcurveto
          -15 64 rlineto
          105 94 44 13 callsubr
          -38 -47 -64 -59 vhcurveto
          -45 202 -27 callsubr
          64 -287 rlineto
          hintmask 10101110
          -69 -77 -81 -66 -82 hhcurveto
          -43 -28 -98 callsubr
          61 -34 88 128 103 76 90 95 vhcurveto
          hintmask 01100010
          -116 26 30 -50 69 hhcurveto
          53 94 -57 callsubr
          endchar
        </CharString>
        <CharString name="afii10068_afii10087.liga">
          259 28 callgsubr
          576 243 -50 callsubr
        </CharString>
        <CharString name="afii10068_afii10089">
          414 119 callgsubr
          hstemhm
          -21 152 -152 943 -731 151 211 callsubr
          880 -56 callgsubr
          hintmask 01101000
          -51 -15 -27 -37 -39 hhcurveto
          -28 -13 9 28 10 1 -63 callsubr
          hvcurveto
          72 340 rlineto
          -144 hlineto
          -35 -167 rlineto
          -52 -11 -30 -36 -67 callsubr
          18 -72 callgsubr
          2 10 hvcurveto
          39 186 rlineto
          -144 hlineto
          -35 -167 -3 -12 rlineto
          hintmask 10101000
          -139 -35 -101 -104 -67 hhcurveto
          hintmask 10110100
          -44 -27 -98 callsubr
          56 -34 99 113 104 102 113 59 29 callsubr
          -5 -25 rlineto
          204 callsubr
          92 22 163 56 vhcurveto
          endchar
        </CharString>
        <CharString name="afii10068_afii10089.liga">
          368 119 callgsubr
          hstemhm
          -21 152 -152 854 -642 151 211 callsubr
          621 -56 callgsubr
          204 callsubr
          52 32 71 5 vhcurveto
          -3 -7 -6 -3 -19 hhcurveto
          -28 -13 9 28 10 1 -63 callsubr
          hvcurveto
          72 340 rlineto
          -143 hlineto
          -35 -167 rlineto
          -52 -11 -30 -36 -67 callsubr
          18 -72 callgsubr
          2 10 hvcurveto
          39 186 rlineto
          -144 hlineto
          -35 -167 -3 -12 rlineto
          hintmask 10101000
          -139 -35 -101 -104 -67 hhcurveto
          hintmask 10110100
          -44 -27 -98 callsubr
          56 -34 99 113 104 102 113 59 29 callsubr
          endchar
        </CharString>
        <CharString name="afii10069">
          -53 callsubr
        </CharString>
        <CharString name="afii10069.end">
          -39 callsubr
        </CharString>
        <CharString name="afii10069_afii10089">
          544 81 callgsubr
          352 62 106 callsubr
          -70 55 218 callgsubr
          1010 179 rmoveto
          -51 -15 -27 -37 -39 hhcurveto
          -28 -13 9 28 10 1 11 3 11 hvcurveto
          72 340 rlineto
          -144 -31 callgsubr
          -93 callgsubr
          -787 -10 rmoveto
          220 callgsubr
          hintmask 11110000
          -84 callsubr
          -25 -12 hvcurveto
          -104 -489 rmoveto
          hintmask 11101000
          -85 callsubr
        </CharString>
        <CharString name="afii10069_afii10089.liga">
          499 -10 callsubr
          103 346 62 106 callsubr
          -70 55 218 callgsubr
          753 179 rmoveto
          -5 -25 -3 -22 -18 vvcurveto
          -84 47 -36 60 53 52 32 71 5 vhcurveto
          -3 -7 -6 -3 -19 hhcurveto
          -28 -13 9 28 10 1 11 3 11 hvcurveto
          72 340 rlineto
          -145 -31 callgsubr
          -492 -35 rmoveto
          220 callgsubr
          hintmask 11110000
          -84 callsubr
          -25 -12 hvcurveto
          -104 -489 rmoveto
          hintmask 11101000
          -85 callsubr
        </CharString>
        <CharString name="afii10069_afii10105">
          280 61 callsubr
          -35 42 -17 97 352 62 106 callsubr
          -70 55 -6 callsubr
          hintmask 0011010101000000
          612 23 callsubr
          -104 -486 -51 -5 rlineto
          hintmask 0011100110000000
          -15 -3 -15 -1 -16 -1 106 496 rcurveline
          -92 callsubr
          vhcurveto
          hintmask 0011001110000000
          229 callgsubr
          -14 -67 rlineto
          hintmask 1001010101000000
          227 callgsubr
          hintmask 0011010101000000
          43 50 12 47 39 hvcurveto
          hintmask 0101001110000000
          16 callgsubr
          -330 252 -22 callsubr
        </CharString>
        <CharString name="afii10069_afii10105.liga">
          249 61 callsubr
          -35 42 -17 97 352 62 106 callsubr
          -70 55 -6 callsubr
          hintmask 0011010101000000
          471 14 rmoveto
          -51 -5 rlineto
          hintmask 0011100110000000
          -15 -3 -15 -1 -16 -1 106 496 rcurveline
          -92 callsubr
          vhcurveto
          hintmask 0011001110000000
          229 callgsubr
          -14 -67 rlineto
          hintmask 1001010101000000
          227 callgsubr
          hintmask 0011010101000000
          43 50 12 47 39 hvcurveto
          hintmask 0101001110000000
          16 callgsubr
          123 580 rlineto
          -144 hlineto
          -309 -328 -22 callsubr
        </CharString>
        <CharString name="afii10070">
          117 callgsubr
          155 77 vstem
          -96 callgsubr
          endchar
        </CharString>
        <CharString name="afii10070.end">
          -100 -6 95 367 53 hstem
          -14 148 155 77 vstem
          314 142 rmoveto
          -28 -32 -47 -25 -39 hhcurveto
          -35 -27 19 64 9 1 -68 callgsubr
          149 callsubr
          50 -21 46 -89 -205 -65 -241 -115 -113 62 -46 93 137 callgsubr
          vhcurveto
          -171 108 rmoveto
          95 21 50 111 50 hhcurveto
          19 6 -16 -25 -83 -69 -79 -77 -3 hvcurveto
          endchar
        </CharString>
        <CharString name="afii10070_afii10073">
          410 226 callsubr
          -53 53 106 callsubr
          155 77 67 213 callgsubr
          -6 callsubr
          hintmask 1110101110000000
          58 callsubr
          hintmask 1111011110000000
          -55 callsubr
          12 1 13 1 15 149 callsubr
          hintmask 1110111110000000
          79 callsubr
          172 74 137 129 54 vhcurveto
          hintmask 1111001110000000
          117 48 41 41 60 hhcurveto
          51 10 -86 callgsubr
          -773 71 rmoveto
          hintmask 1110101110000000
          102 callsubr
          hintmask 1111001110000000
          233 callsubr
          vhcurveto
          443 -304 rmoveto
          -63 -8 -28 -55 -29 hhcurveto
          -23 -11 14 19 40 47 27 52 18 hvcurveto
          endchar
        </CharString>
        <CharString name="afii10070_afii10073.liga">
          338 56 callgsubr
          196 callgsubr
          -53 53 106 callsubr
          155 77 61 50 callgsubr
          hintmask 1110101110000000
          519 -70 callgsubr
          hintmask 1111011101000000
          40 8 115 82 131 vvcurveto
          -55 callsubr
          12 1 13 1 15 149 callsubr
          hintmask 1110111110000000
          79 callsubr
          172 74 137 129 54 vhcurveto
          hintmask 1111001101000000
          -44 callsubr
          -343 150 rmoveto
          hintmask 1110101110000000
          102 callsubr
          hintmask 1111001101000000
          233 callsubr
          vhcurveto
          hintmask 1110101110000000
          443 -275 -77 callsubr
        </CharString>
        <CharString name="afii10070_afii10087">
          -71 callsubr
        </CharString>
        <CharString name="afii10070_afii10087.liga">
          -68 callsubr
        </CharString>
        <CharString name="afii10070_afii10089">
          423 167 callsubr
          155 77 211 callsubr
          889 -56 callgsubr
          hintmask 01101000
          -51 -15 -27 -37 -39 hhcurveto
          -28 -13 9 28 10 1 -63 callsubr
          hvcurveto
          72 340 rlineto
          -87 callsubr
          -35 -167 rlineto
          hintmask 10111000
          -140 -29 -108 -115 -77 hhcurveto
          -43 -25 16 68 12 1 13 1 15 149 callsubr
          79 callsubr
          118 102 109 106 56 29 callsubr
          -5 -25 rlineto
          204 callsubr
          92 22 163 56 vhcurveto
          -786 -40 callgsubr
          endchar
        </CharString>
        <CharString name="afii10070_afii10089.liga">
          378 167 callsubr
          155 77 hintmask 00000000
          hintmask 10111000
          -23 callsubr
          hintmask 01111000
          64 callsubr
          endchar
        </CharString>
        <CharString name="afii10071">
          -82 -6 84 378 -16 callsubr
          hintmask 00000000
          hintmask 11010100
          -96 callgsubr
          hintmask 11101010
          78 callgsubr
          endchar
        </CharString>
        <CharString name="afii10071.end">
          -100 -6 95 367 53 64 122 hstemhm
          -14 148 -15 122 48 77 -67 122 hintmask 00000000
          hintmask 11101010
          421 94 callgsubr
          -180 hmoveto
          -107 callgsubr
          73 -492 rmoveto
          -28 -32 -47 -25 -39 hhcurveto
          hintmask 11010100
          -35 -27 19 64 9 1 -68 callgsubr
          149 callsubr
          50 -21 46 -89 -205 -65 -241 -115 -113 62 -46 93 vhcurveto
          hintmask 11101010
          137 callgsubr
          hvcurveto
          hintmask 01000100
          -171 108 rmoveto
          95 21 50 111 50 hhcurveto
          19 6 -16 -25 -83 -69 -79 -77 -3 hvcurveto
          endchar
        </CharString>
        <CharString name="afii10071_afii10073">
          410 226 callsubr
          -53 -16 callsubr
          13 213 callgsubr
          -6 callsubr
          hintmask 1110110010110000
          58 callsubr
          hintmask 1111011010110000
          -55 callsubr
          12 1 13 1 15 149 callsubr
          hintmask 1110111010110000
          79 callsubr
          172 74 137 129 54 vhcurveto
          hintmask 1111010010110000
          117 48 41 41 60 hhcurveto
          51 10 -86 callgsubr
          -773 71 18 callsubr
          -688 rmoveto
          -63 -8 -28 -55 -29 hhcurveto
          -23 -11 14 19 40 47 27 52 18 hvcurveto
          endchar
        </CharString>
        <CharString name="afii10071_afii10073.liga">
          338 56 callgsubr
          196 callgsubr
          -53 -16 callsubr
          7 55 170 151 -6 callsubr
          hintmask 1110110010110000
          519 -70 callgsubr
          -72 callsubr
          hintmask 1111011010110000
          -55 callsubr
          12 1 13 1 15 149 callsubr
          hintmask 1110111010110000
          79 callsubr
          172 74 137 129 54 vhcurveto
          hintmask 1111010010110000
          -44 callsubr
          -343 150 18 callsubr
          -659 -77 callsubr
        </CharString>
        <CharString name="afii10071_afii10087">
          296 -6 82 -82 97 362 103 -100 -16 callsubr
          267 59 -6 callsubr
          hintmask 1001000101000000
          762 -56 callgsubr
          hintmask 0110000101000000
          -90 callgsubr
          49 rlineto
          75 callgsubr
          -94 callgsubr
          hintmask 1001010101000000
          -75 -67 -96 213 callsubr
          -44 24 75 8 0 10 1 9 hvcurveto
          121 8 110 87 116 vvcurveto
          67 callgsubr
          hintmask 0101101101000000
          -101 24 29 -38 67 hhcurveto
          50 97 -57 callsubr
          -660 71 rmoveto
          93 19 52 113 50 hhcurveto
          19 6 -16 -25 -83 -69 -79 -77 -3 hvcurveto
          97 -8 callgsubr
          hintmask 1001100011000000
          180 hmoveto
          -107 callgsubr
          endchar
        </CharString>
        <CharString name="afii10071_afii10087.liga">
          281 -6 82 -82 97 362 103 -100 -16 callsubr
          267 59 -6 callsubr
          hintmask 1001000101000000
          604 228 rmoveto
          75 callgsubr
          hintmask 1010010101000000
          -94 callgsubr
          -75 -67 -96 213 callsubr
          -44 24 75 8 0 10 1 9 hvcurveto
          121 8 110 87 116 vvcurveto
          hintmask 1001010101000000
          67 callgsubr
          hintmask 0101101101000000
          -100 23 30 -39 64 30 callsubr
          -44 -8 28 60 -11 hvcurveto
          -469 71 rmoveto
          93 19 52 113 50 hhcurveto
          19 6 -16 -25 -83 -69 -79 -77 -3 hvcurveto
          97 -8 callgsubr
          hintmask 1001100011000000
          180 hmoveto
          -107 callgsubr
          endchar
        </CharString>
        <CharString name="afii10071_afii10089">
          423 -6 84 -84 97 365 -16 callsubr
          hintmask 00000000
          hintmask 10100010
          889 -56 callgsubr
          hintmask 01100010
          -51 -15 -27 -37 -39 hhcurveto
          -28 -13 9 28 10 1 -63 callsubr
          hvcurveto
          72 340 rlineto
          -87 callsubr
          -35 -167 rlineto
          hintmask 10101010
          -88 -19 -88 -167 -107 hhcurveto
          -43 -25 16 68 12 1 13 1 15 149 callsubr
          79 callsubr
          118 102 109 106 56 29 callsubr
          -5 -25 rlineto
          -25 callgsubr
          -18 vvcurveto
          hintmask 01110110
          37 callsubr
          -786 -40 callgsubr
          160 callgsubr
          hintmask 10110001
          180 hmoveto
          -107 callgsubr
          endchar
        </CharString>
        <CharString name="afii10071_afii10089.liga">
          378 -6 84 -84 97 365 -16 callsubr
          hintmask 00000000
          hintmask 10101010
          -23 callsubr
          hintmask 01110110
          64 callsubr
          160 callgsubr
          hintmask 10111001
          180 hmoveto
          -107 callgsubr
          endchar
        </CharString>
        <CharString name="afii10072">
          416 -6 53 -53 74 102 9 61 60 135 74 -53 53 hstemhm
          -37 82 145 9 callsubr
          hintmask 1011011111000000
          890 -56 callgsubr
          hintmask 0111011111000000
          -76 -45 -64 -35 -47 -41 callgsubr
          146 callgsubr
          hvcurveto
          -3 callgsubr
          204 callgsubr
          -109 -64 -103 -106 -32 hvcurveto
          -27 callgsubr
          17 1 16 17 vvcurveto
          hintmask 1011101111000000
          97 -54 62 -92 -94 -45 -58 -91 -27 vhcurveto
          52 hlineto
          20 callgsubr
          22 callsubr
          202 callsubr
          134 hlineto
          171 callgsubr
          57 hlineto
          -7 -31 -1 -29 -27 vvcurveto
          hintmask 0111011111000000
          -97 55 -62 91 104 94 93 92 42 vhcurveto
          endchar
        </CharString>
        <CharString name="afii10072.end">
          382 -6 53 -53 74 172 60 135 74 -53 53 hstemhm
          -37 82 145 9 callsubr
          hintmask 1010111110000000
          439 hmoveto
          171 callgsubr
          57 hlineto
          -7 -31 -1 -29 -27 vvcurveto
          hintmask 0110111110000000
          104 callgsubr
          139 callsubr
          -3 callgsubr
          204 callgsubr
          -109 -64 -103 -106 -32 hvcurveto
          -27 callgsubr
          17 1 16 17 vvcurveto
          hintmask 1011011110000000
          97 -54 62 -92 -94 -45 -58 -91 -27 vhcurveto
          52 hlineto
          20 callgsubr
          22 callsubr
          202 callsubr
          endchar
        </CharString>
        <CharString name="afii10072_afii10089">
          926 -6 53 -53 74 -68 91 57 36 -14 75 -5 60 135 65 -44 53 hstemhm
          -37 82 145 9 callsubr
          hintmask 0011011011110000
          1387 24 callsubr
          72 340 rlineto
          -144 hlineto
          -36 -169 rlineto
          hintmask 0100101011110000
          28 callsubr
          -35 -165 rlineto
          216 callsubr
          hvcurveto
          hintmask 0011010111110000
          118 55 165 53 15 8 -16 -25 146 callgsubr
          vhcurveto
          -3 callgsubr
          204 callgsubr
          -52 callsubr
          -5 -25 rlineto
          -25 callgsubr
          -18 vvcurveto
          hintmask 1001011011110000
          115 callsubr
        </CharString>
        <CharString name="afii10072_afii10089.liga">
          875 -6 53 -53 74 -68 91 57 36 -14 75 -5 60 135 65 -44 53 hstemhm
          -37 82 145 9 callsubr
          hintmask 0011011011110000
          1129 -56 callgsubr
          -25 callgsubr
          -18 vvcurveto
          hintmask 1001011011110000
          -84 -26 callgsubr
          176 callsubr
          hintmask 0010101011110000
          -3 -7 -6 -3 -19 hhcurveto
          -28 -13 9 28 10 1 -63 callsubr
          hvcurveto
          72 340 rlineto
          -144 hlineto
          -36 -169 rlineto
          28 callsubr
          -35 -165 rlineto
          hintmask 0100100111110000
          -136 -29 -86 -131 -66 -41 callgsubr
          146 callgsubr
          hvcurveto
          -3 callgsubr
          204 callgsubr
          hvcurveto
          hintmask 0011010111110000
          -52 callsubr
          endchar
        </CharString>
        <CharString name="afii10073">
          32 -250 78 272 189 callgsubr
          hstem
          56 213 callgsubr
          vstem
          498 -47 callgsubr
          -62 58 -96 -178 -45 -151 -179 -45 vhcurveto
          42 hlineto
          172 45 55 67 72 hhcurveto
          51 10 -47 -39 -95 -51 -77 -72 hvcurveto
          -29 hlineto
          -13 -60 rlineto
          31 hlineto
          46 24 -35 -71 2 hvcurveto
          63 callsubr
          endchar
        </CharString>
        <CharString name="afii10073.end">
          -40 -250 89 261 189 callgsubr
          hstemhm
          50 203 callsubr
          -82 151 hintmask 00000000
          hintmask 11111000
          141 -70 callgsubr
          hintmask 11110100
          40 8 115 81 134 vvcurveto
          100 -60 57 -104 -168 -51 -156 -174 -43 vhcurveto
          42 hlineto
          171 44 57 68 68 hhcurveto
          53 11 -43 -43 113 callsubr
          hvcurveto
          -12 callsubr
          hintmask 11111000
          100 -125 -77 callsubr
        </CharString>
        <CharString name="afii10073.init">
          -11 -250 78 272 189 callgsubr
          hstem
          13 213 callgsubr
          vstem
          455 -47 callgsubr
          -62 58 -96 -127 -54 -100 -95 -34 vhcurveto
          48 hlineto
          41 16 35 63 56 hhcurveto
          51 16 -47 -39 -95 -51 -77 -72 hvcurveto
          -29 hlineto
          -13 -60 rlineto
          31 hlineto
          46 24 -35 -71 2 hvcurveto
          63 callsubr
          endchar
        </CharString>
        <CharString name="afii10073_afii10073">
          374 -10 callsubr
          79 27 60 -17 36 239 91 hstemhm
          -32 53 377 213 callgsubr
          hintmask 00000000
          hintmask 11011111
          840 -56 callgsubr
          -29 -96 -44 -33 -72 -21 -13 53 -38 35 -31 12 rrcurveto
          12 callgsubr
          hvcurveto
          hintmask 11101111
          113 callsubr
          vhcurveto
          -12 callsubr
          31 hlineto
          47 22 -33 -73 3 hvcurveto
          -51 callgsubr
          111 75 87 152 3 vhcurveto
          hintmask 11011111
          62 16 81 38 40 136 rrcurveto
          -861 -36 -100 callsubr
          531 -197 rmoveto
          -63 -8 -28 -55 -29 hhcurveto
          -23 -11 14 19 40 47 27 52 18 hvcurveto
          endchar
        </CharString>
        <CharString name="afii10073_afii10073.liga">
          302 56 callgsubr
          79 27 189 callgsubr
          hstemhm
          -32 53 372 203 callsubr
          -83 151 hintmask 00000000
          hintmask 11111110
          484 100 rmoveto
          62 8 -67 -28 hvcurveto
          -91 -24 -70 -41 -80 vvcurveto
          -71 53 -39 69 80 callgsubr
          -23 222 callgsubr
          hintmask 11111101
          12 callgsubr
          113 callsubr
          hvcurveto
          -12 callsubr
          -431 43 -100 callsubr
          hintmask 11111110
          532 -168 -77 callsubr
        </CharString>
        <CharString name="afii10073_afii10087">
          -75 callgsubr
        </CharString>
        <CharString name="afii10073_afii10087.liga">
          246 -6 79 -79 171 callsubr
          hstemhm
          -32 53 632 59 hintmask 00000000
          hintmask 10111000
          569 229 rmoveto
          62 callgsubr
          -106 callgsubr
          -36 -35 -59 -60 -64 vhcurveto
          203 callgsubr
          -141 hlineto
          56 -305 -35 -31 -49 -25 -41 -17 rlinecurve
          3 15 2 15 -17 callgsubr
          41 22 77 27 55 39 rrcurveto
          hintmask 01111000
          -104 24 26 -44 69 30 callsubr
          -44 -8 28 60 -11 hvcurveto
          hintmask 10111000
          -557 -36 callsubr
        </CharString>
        <CharString name="afii10073_afii10089">
          443 -6 79 -79 97 39 49 -31 97 hstemhm
          -32 53 211 callsubr
          909 -56 callgsubr
          hintmask 01101000
          -51 -15 -27 -37 -39 hhcurveto
          -28 -13 9 28 10 1 -63 callsubr
          hvcurveto
          72 340 rlineto
          -144 hlineto
          -35 -167 rlineto
          hintmask 10011000
          -6 callgsubr
          -5 -25 rlineto
          204 callsubr
          92 22 163 56 vhcurveto
          hintmask 10101000
          -930 -36 callsubr
        </CharString>
        <CharString name="afii10073_afii10089.liga">
          398 -6 79 -79 97 57 97 hstemhm
          -32 53 169 callgsubr
          864 500 rmoveto
          -145 hlineto
          -35 -167 rlineto
          -6 callgsubr
          -9 -49 -3 -22 -19 vvcurveto
          hintmask 01110000
          -84 -26 callgsubr
          176 callsubr
          -3 -7 -6 -3 -19 hhcurveto
          -28 -13 9 28 10 1 -63 callsubr
          hvcurveto
          hintmask 10110000
          -771 -17 -100 callsubr
          endchar
        </CharString>
        <CharString name="afii10074">
          39 169 callsubr
          hstemhm
          -8 555 105 callgsubr
          163 callgsubr
          hintmask 10100000
          -51 -15 -27 -37 -39 hhcurveto
          -28 -13 9 28 10 1 -63 callsubr
          -107 callsubr
          57 hhcurveto
          38 callsubr
          endchar
        </CharString>
        <CharString name="afii10074.end">
          -7 169 callsubr
          hstemhm
          -8 467 105 callgsubr
          247 -56 callgsubr
          hintmask 10100000
          -89 callgsubr
          endchar
        </CharString>
        <CharString name="afii10074_afii10089">
          544 -6 97 hstem
          -8 1060 vstem
          1010 24 callsubr
          72 340 rlineto
          -144 hlineto
          -35 -167 rlineto
          -52 -11 -30 -36 -67 callsubr
          18 -72 callgsubr
          2 10 hvcurveto
          39 186 rlineto
          -144 hlineto
          -34 -163 rlineto
          -51 -12 -22 -195 -81 hhcurveto
          -28 -13 9 28 10 1 -63 callsubr
          -107 callsubr
          57 hhcurveto
          81 callsubr
          hvcurveto
          -29 19 32 -13 45 callgsubr
        </CharString>
        <CharString name="afii10074_afii10089.liga">
          498 -6 97 hstem
          -8 972 vstem
          752 -56 callgsubr
          -59 callgsubr
          176 callsubr
          -3 -7 -6 -3 -19 hhcurveto
          -28 -13 9 28 10 1 -63 callsubr
          hvcurveto
          72 340 rlineto
          -144 hlineto
          -35 -167 rlineto
          -52 -11 -30 -36 -67 callsubr
          18 -72 callgsubr
          2 10 hvcurveto
          39 186 rlineto
          -144 hlineto
          -34 -163 rlineto
          -51 -12 -22 -195 -81 hhcurveto
          -28 -13 9 28 10 1 -63 callsubr
          -107 callsubr
          57 hhcurveto
          81 callsubr
          30 callgsubr
          endchar
        </CharString>
        <CharString name="afii10075">
          39 195 callgsubr
          555 -417 129 hintmask 00000000
          hintmask 11100000
          505 179 rmoveto
          -51 -15 -27 -37 -39 hhcurveto
          -28 -13 9 28 10 1 11 3 11 -107 callsubr
          57 hhcurveto
          38 callsubr
          -118 540 11 callsubr
        </CharString>
        <CharString name="afii10075.end">
          -7 195 callgsubr
          479 -341 129 105 callgsubr
          429 719 17 callgsubr
          -224 -540 rmoveto
          -89 callgsubr
          endchar
        </CharString>
        <CharString name="afii10075_afii10089">
          544 195 callgsubr
          1060 -922 129 hintmask 00000000
          hintmask 11100000
          1010 24 callsubr
          72 340 rlineto
          -144 hlineto
          -36 -169 rlineto
          28 callsubr
          -35 -165 rlineto
          -54 -11 -24 -190 -79 hhcurveto
          -28 -13 9 28 10 1 -63 callsubr
          -107 callsubr
          57 hhcurveto
          81 callsubr
          30 callgsubr
          -93 callgsubr
          -623 540 11 callsubr
        </CharString>
        <CharString name="afii10075_afii10089.liga">
          498 195 callgsubr
          972 -834 129 hintmask 00000000
          hintmask 11100000
          752 -56 callgsubr
          -59 callgsubr
          176 callsubr
          -3 -7 -6 -3 -19 hhcurveto
          -28 -13 9 28 10 1 -63 callsubr
          hvcurveto
          72 340 rlineto
          -144 hlineto
          -36 -169 rlineto
          28 callsubr
          -35 -165 rlineto
          -54 -11 -24 -190 -79 hhcurveto
          -28 -13 9 28 10 1 -63 callsubr
          -107 callsubr
          57 hhcurveto
          81 callsubr
          30 callgsubr
          -328 515 11 callsubr
        </CharString>
        <CharString name="afii10076">
          35 -6 97 157 71 59 131 hstem
          -38 581 vstem
          501 -56 callgsubr
          -61 -27 -16 -27 -40 hhcurveto
          -27 -13 -86 callsubr
          -107 -500 rlineto
          144 hlineto
          44 211 rlineto
          25 31 14 12 19 hhcurveto
          25 13 -16 -32 hvcurveto
          -23 -12 -39 -33 vvcurveto
          -68 40 -43 81 79 61 62 123 42 vhcurveto
          endchar
        </CharString>
        <CharString name="afii10076.end">
          35 -6 97 -97 515 -261 71 59 131 hstemhm
          -38 527 hintmask 00000000
          hintmask 01001000
          106 hmoveto
          hintmask 10111000
          44 211 rlineto
          25 31 14 12 21 hhcurveto
          25 11 -18 -27 hvcurveto
          -28 -12 -35 -35 vvcurveto
          -68 46 -43 64 60 42 35 72 7 vhcurveto
          -8 -11 -17 -2 -12 hhcurveto
          -28 -14 13 27 hvcurveto
          31 15 29 40 vvcurveto
          56 -28 32 -69 -12 -15 -1 -3 -15 vhcurveto
          42 42 31 45 45 27 rrcurveto
          -21 12 -30 43 40 23 25 39 39 -22 28 -49 -75 -34 -68 -139 -139 vhcurveto
          43 198 rlineto
          -144 hlineto
          -107 -500 rlineto
          endchar
        </CharString>
        <CharString name="afii10076_afii10089">
          550 122 callgsubr
          1103 hintmask 00000000
          hintmask 01001000
          1023 24 callsubr
          72 340 rlineto
          -144 hlineto
          -35 -167 rlineto
          -52 -11 -30 -36 -67 callsubr
          18 -72 callgsubr
          2 10 hvcurveto
          39 186 rlineto
          -144 hlineto
          -40 -195 rlineto
          hintmask 10111000
          -195 -40 -48 -19 -37 hhcurveto
          -29 -14 -86 callsubr
          hintmask 01101000
          -107 -500 rlineto
          144 hlineto
          44 211 rlineto
          25 31 14 12 19 hhcurveto
          25 13 -16 -32 hvcurveto
          -23 -12 -39 -33 vvcurveto
          hintmask 10001000
          -68 40 -43 81 72 78 37 164 145 callgsubr
          -93 callgsubr
          endchar
        </CharString>
        <CharString name="afii10076_afii10089.liga">
          512 122 callgsubr
          1016 hintmask 00000000
          hintmask 01001000
          766 -5 callsubr
          -52 -11 -30 -36 -67 callsubr
          18 -72 callgsubr
          2 10 hvcurveto
          39 186 rlineto
          -144 hlineto
          -40 -195 rlineto
          hintmask 10111000
          -195 -40 -48 -19 -37 hhcurveto
          -29 -14 -86 callsubr
          hintmask 01101000
          -107 -500 rlineto
          144 hlineto
          44 211 rlineto
          25 31 14 12 19 hhcurveto
          25 13 -16 -32 hvcurveto
          -23 -12 -39 -33 vvcurveto
          hintmask 10001000
          -68 40 -43 81 72 78 37 164 145 callgsubr
          endchar
        </CharString>
        <CharString name="afii10077">
          92 -6 63 -63 97 343 66 hstemhm
          -38 74 169 callgsubr
          558 -56 callgsubr
          hintmask 01110000
          20 callsubr
          -147 hlineto
          -90 -59 -40 -208 -43 hvcurveto
          hintmask 10110000
          -1 callsubr
          -44 -198 136 callgsubr
          hintmask 01110000
          159 callgsubr
        </CharString>
        <CharString name="afii10077.end">
          45 -6 63 -63 97 343 66 hstemhm
          -38 74 169 callgsubr
          307 -56 callgsubr
          -25 callgsubr
          -18 vvcurveto
          hintmask 01110000
          -84 43 -36 57 176 callsubr
          -3 -7 -6 -3 -19 hhcurveto
          -28 -13 9 28 10 1 -63 callsubr
          hvcurveto
          71 340 74 callsubr
          hintmask 10110000
          -1 callsubr
          endchar
        </CharString>
        <CharString name="afii10077_afii10089">
          595 -6 97 -2 90 255 66 hstemhm
          -38 114 -114 1141 hintmask 00000000
          hintmask 01101000
          1061 -56 callgsubr
          hintmask 10101000
          -51 -15 -27 -37 -39 hhcurveto
          -28 -13 9 28 10 1 -63 callsubr
          hvcurveto
          72 340 rlineto
          -87 callsubr
          -39 -184 rlineto
          -112 -24 -24 -113 -63 -21 callsubr
          -141 hlineto
          -100 -50 -40 -208 -48 hvcurveto
          hintmask 10110000
          -102 -24 -6 -93 -67 hhcurveto
          -31 -5 17 15 -3 hvcurveto
          hintmask 01110000
          4 callsubr
          31 -21 21 -31 -39 -23 -31 -47 vhcurveto
          hintmask 10110000
          -61 34 -54 76 108 21 87 161 35 vhcurveto
          139 29 28 53 69 190 callsubr
          63 81 59 136 43 vhcurveto
          -18 callsubr
          -5 -25 rlineto
          -59 callgsubr
          vhcurveto
          hintmask 01101000
          38 callsubr
          endchar
        </CharString>
        <CharString name="afii10077_afii10089.liga">
          549 -6 97 -2 8 337 66 hstemhm
          -38 114 -114 1052 211 callsubr
          802 -56 callgsubr
          -59 callgsubr
          176 callsubr
          -3 -7 -6 -3 -19 hhcurveto
          -28 -13 9 28 10 1 -63 callsubr
          hvcurveto
          72 340 rlineto
          -143 hlineto
          -35 -167 rlineto
          -51 -11 -30 -37 -67 callsubr
          18 -72 callgsubr
          2 10 hvcurveto
          39 186 rlineto
          -144 hlineto
          -39 -184 rlineto
          -112 -24 -24 -113 -63 -21 callsubr
          -141 hlineto
          -100 -50 -40 -208 -48 hvcurveto
          hintmask 10110000
          -102 -24 -6 -93 -67 hhcurveto
          -31 -5 17 15 -3 hvcurveto
          hintmask 01110000
          4 callsubr
          31 -21 21 -31 -39 -23 -31 -47 vhcurveto
          hintmask 10110000
          -61 34 -54 76 108 21 87 161 35 vhcurveto
          139 29 28 53 69 190 callsubr
          63 81 59 136 43 vhcurveto
          -18 callsubr
          endchar
        </CharString>
        <CharString name="afii10078">
          307 -6 54 -54 97 hstemhm
          -38 74 -74 853 hintmask 00000000
          hintmask 10010000
          773 -56 callgsubr
          hintmask 01010000
          -61 -27 -17 -27 -40 -10 callgsubr
          hintmask 10100000
          -103 -21 -10 -101 -72 hhcurveto
          -32 -8 23 15 1 hvcurveto
          4 callsubr
          31 -21 21 -31 -39 -23 -28 -47 -53 34 -62 76 104 21 89 159 32 vhcurveto
          197 callsubr
          140 hlineto
          148 304 -16 -71 rlineto
          -14 -62 -7 -44 -27 vvcurveto
          hintmask 01010000
          159 callgsubr
        </CharString>
        <CharString name="afii10078.end">
          260 -6 54 -54 97 hstemhm
          -38 74 -74 764 hintmask 00000000
          hintmask 10010000
          400 206 callsubr
          hintmask 01010000
          -84 43 -36 57 139 callgsubr
          -148 hlineto
          -186 -384 -21 384 rlineto
          -140 hlineto
          -53 -248 rlineto
          hintmask 10100000
          -103 -21 -12 -101 -70 hhcurveto
          -32 -8 23 15 1 hvcurveto
          4 callsubr
          31 -21 21 -31 -39 -23 -28 -47 -53 34 -62 76 104 21 89 159 32 vhcurveto
          197 callsubr
          endchar
        </CharString>
        <CharString name="afii10078_afii10089">
          810 -6 54 38 159 -97 36 hstemhm
          -38 74 -74 1356 211 callsubr
          1276 24 callsubr
          72 340 rlineto
          -144 hlineto
          -35 -167 rlineto
          hintmask 11001000
          -52 -11 -30 -36 -67 callsubr
          18 -72 callgsubr
          2 10 hvcurveto
          39 186 rlineto
          -144 hlineto
          -39 -184 rlineto
          -112 -24 -24 -113 -63 -10 callgsubr
          hintmask 11010000
          -103 -21 -12 -101 -70 hhcurveto
          -32 -8 23 15 1 hvcurveto
          4 callsubr
          hintmask 10110000
          31 -21 21 -31 -39 -23 -28 -47 -53 34 -62 76 104 21 89 159 32 vhcurveto
          13 63 163 callsubr
          -55 37 -51 81 63 81 59 136 43 vhcurveto
          -28 107 callsubr
        </CharString>
        <CharString name="afii10078_afii10089.liga">
          765 -6 54 -48 97 -11 159 -97 36 hstemhm
          -38 74 -74 1269 hintmask 00000000
          hintmask 10010100
          1019 -5 callsubr
          hintmask 10100100
          -52 -11 -30 -36 -67 callsubr
          18 -72 callgsubr
          2 10 hvcurveto
          39 186 rlineto
          -144 hlineto
          -39 -184 rlineto
          -112 -24 -24 -113 -63 -10 callgsubr
          hintmask 10101000
          -103 -21 -12 -101 -70 hhcurveto
          -32 -8 23 15 1 hvcurveto
          4 callsubr
          hintmask 10011000
          31 -21 21 -31 -39 -23 -28 -47 -53 34 -62 76 104 21 89 159 32 vhcurveto
          13 63 rlineto
          hintmask 01010100
          163 callsubr
          hintmask 10010100
          -55 37 -51 81 63 81 59 136 43 vhcurveto
          -18 callsubr
          endchar
        </CharString>
        <CharString name="afii10079">
          41 -6 97 149 60 hstem
          -38 587 vstem
          507 -56 callgsubr
          -61 -27 -17 -27 -40 112 callsubr
          -106 -500 rlineto
          144 hlineto
          51 240 rlineto
          111 hlineto
          -13 -63 -10 -50 -27 vvcurveto
          159 callgsubr
        </CharString>
        <CharString name="afii10079.end">
          -6 -6 97 149 60 hstem
          -38 498 vstem
          106 hmoveto
          51 240 rlineto
          111 hlineto
          -19 -85 -2 -23 -18 vvcurveto
          -84 44 -36 55 176 callsubr
          -3 -7 -6 -3 -19 hhcurveto
          -31 -10 18 -29 callgsubr
          8 3 11 hvcurveto
          73 340 rlineto
          -134 hlineto
          -45 -200 rlineto
          -112 hlineto
          43 55 callsubr
          -106 -500 rlineto
          endchar
        </CharString>
        <CharString name="afii10079_afii10089">
          545 179 callsubr
          149 60 hstemhm
          -38 1091 hintmask 00000000
          hintmask 01110000
          1011 -20 callsubr
          -39 -185 rlineto
          hintmask 10110000
          -134 -30 -20 -90 -62 112 callsubr
          hintmask 01110000
          -106 -500 rlineto
          144 hlineto
          51 240 rlineto
          111 hlineto
          -13 -63 -10 -50 -27 vvcurveto
          hintmask 10110000
          -55 37 -51 81 80 69 71 125 39 vhcurveto
          -29 19 32 -13 45 callgsubr
        </CharString>
        <CharString name="afii10079_afii10089.liga">
          499 179 callsubr
          149 60 hstemhm
          -38 1003 hintmask 00000000
          hintmask 01110000
          753 -56 callgsubr
          -59 callgsubr
          176 callsubr
          -3 -7 -6 -3 -19 hhcurveto
          -28 -13 9 28 10 1 -63 callsubr
          hvcurveto
          72 340 rlineto
          -87 callsubr
          -39 -185 rlineto
          hintmask 10110000
          -134 -30 -20 -90 -62 112 callsubr
          hintmask 01110000
          -106 -500 rlineto
          144 hlineto
          51 240 rlineto
          111 hlineto
          -13 -63 -10 -50 -27 vvcurveto
          hintmask 10110000
          -55 37 -51 81 80 69 71 125 39 206 callgsubr
          endchar
        </CharString>
        <CharString name="afii10080">
          144 callsubr
          553 -101 callsubr
          endchar
        </CharString>
        <CharString name="afii10080.end">
          144 callsubr
          146 -4 rmoveto
          225 callgsubr
          -205 -69 92 callsubr
          -115 67 -43 93 hvcurveto
          40 90 -2 callsubr
          7 -25 -43 -120 -47 -174 -73 hvcurveto
          endchar
        </CharString>
        <CharString name="afii10080_afii10068">
          -65 callgsubr
          endchar
        </CharString>
        <CharString name="afii10080_afii10072">
          805 -6 53 -53 92 -90 72 102 9 61 60 135 74 -53 53 hstemhm
          -14 137 callsubr
          -6 82 145 9 callsubr
          hintmask 0011101101111000
          1271 -56 callgsubr
          -76 -25 -46 -35 -47 -41 callgsubr
          146 callgsubr
          hvcurveto
          -3 callgsubr
          204 callgsubr
          -109 -64 -103 -106 -32 hvcurveto
          -27 callgsubr
          18 1 17 15 vvcurveto
          hintmask 0011110110111000
          132 callgsubr
          hintmask 0011101110111000
          101 -3 -43 50 -82 hhcurveto
          -205 -69 -239 -116 -115 67 -43 93 123 100 116 185 16 hvcurveto
          -39 callgsubr
        </CharString>
        <CharString name="afii10080_afii10072.liga">
          802 -6 53 -53 92 -90 72 172 60 135 74 -53 53 hstemhm
          -14 137 callsubr
          -6 82 145 122 227 122 131 76 -6 callsubr
          hintmask 0011011011110000
          858 hmoveto
          171 callgsubr
          58 hlineto
          -7 -31 -1 -29 -27 vvcurveto
          hintmask 0101011011110000
          104 callgsubr
          hintmask 0011011011110000
          139 callsubr
          -3 callgsubr
          204 callgsubr
          -109 -64 -103 -106 -32 hvcurveto
          -57 -21 callgsubr
          18 1 17 15 vvcurveto
          hintmask 0011101101110000
          132 callgsubr
          hintmask 0011011101110000
          101 -3 -43 50 -82 68 callgsubr
          hintmask 1001101011110000
          91 80 48 47 41 hhcurveto
          35 19 -28 -77 -118 -52 -165 -57 -19 -17 18 37 21 4 23 9 24 hvcurveto
          11 -12 -10 3 -12 hhcurveto
          -35 -26 -28 -56 -53 26 -53 97 122 67 129 117 24 hvcurveto
          57 hlineto
          202 callsubr
          -422 294 rmoveto
          hintmask 0101011101110000
          -99 callgsubr
          hintmask 1001101011110000
          5 callgsubr
          endchar
        </CharString>
        <CharString name="afii10080_afii10073">
          371 -250 78 168 90 14 189 callgsubr
          -61 61 hstemhm
          -14 137 callsubr
          7 213 callgsubr
          -6 callsubr
          hintmask 1010100110000000
          837 -56 callgsubr
          -32 -96 -41 -33 -72 -21 -13 53 -38 36 -31 11 rrcurveto
          -72 callsubr
          hintmask 1011001110000000
          239 callsubr
          hintmask 1110111110000000
          103 -2 -43 52 -83 68 callgsubr
          hintmask 1011000110000000
          56 64 51 65 56 hhcurveto
          45 12 -86 callgsubr
          -577 115 rmoveto
          hintmask 1110111110000000
          -99 callgsubr
          hintmask 1011000110000000
          124 callsubr
        </CharString>
        <CharString name="afii10080_afii10073.liga">
          299 -250 89 157 90 14 189 callgsubr
          -61 61 hstemhm
          -14 137 callsubr
          1 50 callgsubr
          hintmask 1010100110000000
          480 -70 callgsubr
          hintmask 1011001001000000
          60 callsubr
          hintmask 1110111010000000
          103 -2 -43 52 -83 68 callgsubr
          hintmask 1011000101000000
          47 callgsubr
          -147 194 rmoveto
          hintmask 1110111010000000
          -99 callgsubr
          hintmask 1011000101000000
          5 callgsubr
          hintmask 1010100110000000
          247 -319 -77 callsubr
        </CharString>
        <CharString name="afii10080_afii10077">
          526 -6 63 -63 97 -95 90 348 66 -52 174 callsubr
          hintmask 00000000
          hintmask 10001010
          992 -56 callgsubr
          hintmask 01010010
          -61 -27 -17 -27 -40 hhcurveto
          -27 -13 14 28 17 9 38 15 64 hvcurveto
          53 248 -19 callsubr
          -44 -198 136 callgsubr
          hintmask 01001010
          103 callsubr
          hintmask 00101110
          -848 -93 -2 callsubr
          8 -25 -56 -152 -62 -129 -59 hvcurveto
          endchar
        </CharString>
        <CharString name="afii10080_afii10077.liga">
          479 -6 63 -63 97 -95 90 348 66 -52 174 callsubr
          hintmask 00000000
          hintmask 10001010
          741 -56 callgsubr
          -25 callgsubr
          -18 vvcurveto
          hintmask 01010010
          -84 43 -36 57 176 callsubr
          -3 -7 -6 -3 -19 hhcurveto
          -28 -13 9 28 10 1 -63 callsubr
          hvcurveto
          71 340 -19 callsubr
          hintmask 00101110
          141 callgsubr
          endchar
        </CharString>
        <CharString name="afii10080_afii10078">
          741 218 callsubr
          -19 107 269 174 callsubr
          hintmask 00000000
          hintmask 00011010
          1207 -56 callgsubr
          hintmask 00101010
          -61 -27 -17 -27 -40 -10 callgsubr
          hintmask 10001110
          -103 -21 -10 -101 -72 -30 callgsubr
          -205 -69 92 callsubr
          vhcurveto
          hintmask 00101110
          37 callgsubr
          hintmask 10001010
          52 callsubr
          140 hlineto
          148 304 -16 -71 rlineto
          -14 -62 -7 -44 -27 vvcurveto
          hintmask 01001010
          -55 37 -51 81 vhcurveto
          hintmask 00011010
          82 183 callgsubr
          hvcurveto
          hintmask 01001110
          -1063 -93 -2 callsubr
          8 -25 -56 -152 -62 -129 -59 hvcurveto
          endchar
        </CharString>
        <CharString name="afii10080_afii10078.liga">
          695 218 callsubr
          357 174 callsubr
          hintmask 00000000
          hintmask 01010100
          834 hmoveto
          148 304 rlineto
          -32 -149 -3 -23 -18 vvcurveto
          -84 43 -36 57 176 callsubr
          hintmask 00110100
          -3 -7 -6 -3 -19 hhcurveto
          -28 -13 9 28 10 1 -63 callsubr
          hvcurveto
          73 340 rlineto
          -149 hlineto
          -9 callsubr
          hintmask 10011100
          -103 -21 -12 -101 -70 -30 callgsubr
          -205 -69 92 callsubr
          vhcurveto
          hintmask 00111100
          37 callgsubr
          hintmask 10010100
          52 callsubr
          hintmask 01011100
          -508 158 callgsubr
          endchar
        </CharString>
        <CharString name="afii10080_afii10087">
          384 34 callsubr
          850 -56 callgsubr
          hintmask 0100011011000000
          -69 callsubr
          -12 66 rlineto
          103 92 43 63 67 vvcurveto
          121 callgsubr
          hintmask 0010101111000000
          -36 198 -27 callsubr
          9 -48 -43 -60 -41 -36 -39 -4 rlinecurve
          hintmask 0011001111000000
          105 -1 -43 52 -84 hhcurveto
          -205 -69 -239 -116 208 callgsubr
          hvcurveto
          49 15 45 32 41 49 28 -155 rcurveline
          hintmask 1001001011000000
          -72 -48 -76 -85 -67 vvcurveto
          -67 callgsubr
          2 -7 rlineto
          hintmask 0101001011000000
          -131 24 29 -54 73 hhcurveto
          54 96 -57 callsubr
          -591 114 12 callsubr
          endchar
        </CharString>
        <CharString name="afii10080_afii10087.liga">
          369 34 callsubr
          692 248 rmoveto
          102 91 41 62 66 vvcurveto
          hintmask 0010011011000000
          121 callgsubr
          hintmask 0010101111000000
          -36 198 -27 callsubr
          9 -48 -43 -60 -41 -36 -39 -4 rlinecurve
          hintmask 0011001111000000
          105 -1 -43 52 -84 hhcurveto
          -205 -69 -239 -116 208 callgsubr
          hvcurveto
          49 15 45 32 41 49 28 -155 rcurveline
          hintmask 1001001011000000
          -72 -48 -76 -85 -67 vvcurveto
          -67 callgsubr
          hintmask 0101001011000000
          -128 22 41 -64 47 callsubr
          -403 115 12 callsubr
          endchar
        </CharString>
        <CharString name="afii10080_afii10095">
          401 230 callsubr
          125 84 -61 61 hstemhm
          -14 137 callsubr
          14 82 195 148 -6 callsubr
          hintmask 1010110110000000
          668 240 rmoveto
          -100 -22 -50 -93 -57 -29 callsubr
          209 80 241 110 hvcurveto
          hintmask 1011011110000000
          113 -65 51 -100 -133 -92 -126 -35 -49 vhcurveto
          1 vlineto
          hintmask 0110111110000000
          129 callsubr
          hintmask 0111010110000000
          39 68 83 89 60 hhcurveto
          56 26 98 callsubr
          -242 54 rmoveto
          228 callgsubr
          hvcurveto
          hintmask 1010111110000000
          239 callgsubr
          vhcurveto
          -19 -8 -12 -18 -28 vvcurveto
          hintmask 0111010110000000
          5 callgsubr
          endchar
        </CharString>
        <CharString name="afii10080_afii10100">
          -65 callgsubr
          407 267 -98 callgsubr
          endchar
        </CharString>
        <CharString name="afii10080_afii10106">
          713 -6 63 -63 85 -83 90 198 74 76 66 -52 174 callsubr
          345 220 callsubr
          -6 callsubr
          hintmask 1001010110000000
          740 193 callsubr
          hintmask 0101100111000000
          148 callsubr
          67 callsubr
          hintmask 1001011110000000
          77 callgsubr
          107 -43 53 -85 -205 -69 92 callsubr
          vhcurveto
          hintmask 0011011110000000
          -115 67 -43 93 80 106 33 42 68 vhcurveto
          hintmask 1001100110000000
          -43 11 32 -34 19 callsubr
          hintmask 0011011111000000
          82 callsubr
          hintmask 0101010111000000
          73 callgsubr
          vhcurveto
          endchar
        </CharString>
        <CharString name="afii10081">
          39 -6 97 322 87 hstemhm
          -38 585 -259 141 131 callsubr
          hintmask 11010000
          -78 callsubr
          endchar
        </CharString>
        <CharString name="afii10081.end">
          -12 -6 97 322 87 hstemhm
          -38 492 -166 212 callsubr
          hintmask 11100000
          106 hmoveto
          128 callgsubr
          hintmask 11010000
          -48 callsubr
          -31 -43 -8 -48 -43 vhcurveto
          11 52 rlineto
          -144 hlineto
          -106 -500 rlineto
          endchar
        </CharString>
        <CharString name="afii10081_afii10089">
          544 179 callsubr
          322 87 hstemhm
          -38 1090 -764 212 callsubr
          hintmask 01010000
          1010 -20 callsubr
          -39 -183 rlineto
          hintmask 10101000
          -133 -29 -17 -93 -67 127 callgsubr
          hintmask 01101000
          126 callsubr
          hintmask 10010000
          -57 30 -56 88 89 61 68 128 39 vhcurveto
          -29 107 callsubr
        </CharString>
        <CharString name="afii10081_afii10089.liga">
          499 179 callsubr
          322 87 hstemhm
          -38 1003 -677 212 callsubr
          hintmask 01010000
          753 -5 callsubr
          -51 -11 -30 -37 -67 callsubr
          18 -72 callgsubr
          2 10 hvcurveto
          39 186 rlineto
          -144 hlineto
          -39 -183 rlineto
          hintmask 10101000
          -133 -29 -17 -93 -67 127 callgsubr
          hintmask 01101000
          126 callsubr
          hintmask 10010000
          -57 30 -56 88 89 61 68 128 39 vhcurveto
          -29 -38 callsubr
          endchar
        </CharString>
        <CharString name="afii10082">
          17 9 callgsubr
        </CharString>
        <CharString name="afii10082_afii10073">
          424 -10 callsubr
          207 callgsubr
          5 213 callgsubr
          hintmask 00000000
          hintmask 11110011
          890 -47 callgsubr
          -63 58 -85 vhcurveto
          hintmask 11110111
          -102 -58 -78 -75 -67 hvcurveto
          hintmask 11101111
          65 callgsubr
          hintmask 11110011
          53 61 54 65 54 hhcurveto
          45 12 -86 callgsubr
          -745 205 rmoveto
          hintmask 11101111
          43 callgsubr
          hintmask 11110011
          474 -158 rmoveto
          -63 -8 -28 -55 -29 hhcurveto
          -23 -11 14 19 40 47 27 52 18 hvcurveto
          endchar
        </CharString>
</ttFont>
